0
SECTION
2
HEADER
9
$INSUNITS
70
4
9
$ACADVER
1
AC1014
9
$HANDSEED
5
FFFF
0
ENDSEC
0
SECTION
2
TABLES
0
TABLE
2
VPORT
5
8
100
AcDbSymbolTable
0
ENDTAB
0
TABLE
2
LTYPE
5
5
100
AcDbSymbolTable
0
LTYPE
5
14
100
AcDbSymbolTableRecord
100
AcDbLinetypeTableRecord
2
BYBLOCK
70
0
0
LTYPE
5
15
100
AcDbSymbolTableRecord
100
AcDbLinetypeTableRecord
2
BYLAYER
70
0
0
ENDTAB
0
TABLE
2
LAYER
5
2
100
AcDbSymbolTable
70
2
0
LAYER
5
50
100
AcDbSymbolTableRecord
100
AcDbLayerTableRecord
2
0
70
0
6
CONTINUOUS
0
ENDTAB
0
TABLE
2
STYLE
5
3
100
AcDbSymbolTable
70
1
0
STYLE
5
11
100
AcDbSymbolTableRecord
100
AcDbTextStyleTableRecord
2
STANDARD
70
0
0
ENDTAB
0
TABLE
2
VIEW
5
6
100
AcDbSymbolTable
70
0
0
ENDTAB
0
TABLE
2
UCS
5
7
100
AcDbSymbolTable
70
0
0
ENDTAB
0
TABLE
2
APPID
5
9
100
AcDbSymbolTable
70
2
0
APPID
5
12
100
AcDbSymbolTableRecord
100
AcDbRegAppTableRecord
2
ACAD
70
0
0
ENDTAB
0
TABLE
2
DIMSTYLE
5
A
100
AcDbSymbolTable
70
1
0
ENDTAB
0
TABLE
2
BLOCK_RECORD
5
1
100
AcDbSymbolTable
70
1
0
BLOCK_RECORD
5
1F
100
AcDbSymbolTableRecord
100
AcDbBlockTableRecord
2
*MODEL_SPACE
0
BLOCK_RECORD
5
1B
100
AcDbSymbolTableRecord
100
AcDbBlockTableRecord
2
*PAPER_SPACE
0
ENDTAB
0
ENDSEC
0
SECTION
2
BLOCKS
0
BLOCK
5
20
100
AcDbEntity
100
AcDbBlockBegin
2
*MODEL_SPACE
0
ENDBLK
5
21
100
AcDbEntity
100
AcDbBlockEnd
0
BLOCK
5
1C
100
AcDbEntity
100
AcDbBlockBegin
2
*PAPER_SPACE
0
ENDBLK
5
1D
100
AcDbEntity
100
AcDbBlockEnd
0
ENDSEC
0
SECTION
2
ENTITIES
0
LWPOLYLINE
5
100
100
AcDbEntity
8
0
100
AcDbPolyline
90
6
70
1
43
0.0
10
-24.738692559384315
20
123.00000192224978
10
-24.738692559384319
20
95.000001922249766
10
-94.738692559384319
20
95.000001922249794
10
-94.738692559384319
20
123.00000192224979
10
-91.738692559384305
20
126.00000192224981
10
-27.738692559384308
20
126.00000192224979
0
LINE
5
101
100
AcDbEntity
8
0
100
AcDbLine
10
-31.457484689553588
20
30.871741750681817
30
0
11
-31.457484689553571
21
13.471741750628405
31
0
0
SPLINE
5
102
100
AcDbEntity
8
0
100
AcDbSpline
70
4
71
5
72
21
73
15
74
0
42
0.000000001
43
0.0000000001
44
0.0000000001
40
-1
40
-1
40
-1
40
-1
40
-1
40
-1
40
-0.89999999999999991
40
-0.79999999999999993
40
-0.69999999999999996
40
-0.59999999999999998
40
-0.5
40
-0.40000000000000002
40
-0.30000000000000004
40
-0.20000000000000001
40
-0.10000000000000001
40
0
40
0
40
0
40
0
40
0
40
0
41
1
41
1
41
1
41
1
41
1
41
1
41
1
41
1
41
1
41
1
41
1
41
1
41
1
41
1
41
1
10
-31.457484689553571
20
13.471741750628405
30
0
10
-31.477654484810852
20
13.303911545884823
30
0
10
-31.524441631922894
20
12.974698692995394
30
0
10
-31.613964429606614
20
12.500221490677632
30
0
10
-31.772653865719622
20
11.906910926790085
30
0
10
-32.041006743994352
20
11.235263805065983
30
0
10
-32.38560574187369
20
10.639862802947889
30
0
10
-32.81267312262478
20
10.126930183702491
30
0
10
-33.32560574186779
20
9.699862802949589
30
0
10
-33.921006743984194
20
9.3552638050701624
30
0
10
-34.592653865708527
20
9.0869109267982804
30
0
10
-35.185964429599011
20
8.9282214906908433
30
0
10
-35.660441631920811
20
8.838698693013626
30
0
10
-35.989654484813805
20
8.7919115459070056
30
0
10
-36.157484689559375
20
8.7717417506527084
30
0
0
LINE
5
103
100
AcDbEntity
8
0
100
AcDbLine
10
-36.157484689559375
20
8.7717417506527067
30
0
11
-45.957484689517081
21
8.7717417506526854
31
0
0
SPLINE
5
104
100
AcDbEntity
8
0
100
AcDbSpline
70
4
71
5
72
21
73
15
74
0
42
0.000000001
43
0.0000000001
44
0.0000000001
40
-1
40
-1
40
-1
40
-1
40
-1
40
-1
40
-0.89999999999999991
40
-0.79999999999999993
40
-0.69999999999999996
40
-0.59999999999999998
40
-0.5
40
-0.40000000000000002
40
-0.30000000000000004
40
-0.20000000000000001
40
-0.10000000000000001
40
0
40
0
40
0
40
0
40
0
40
0
41
1
41
1
41
1
41
1
41
1
41
1
41
1
41
1
41
1
41
1
41
1
41
1
41
1
41
1
41
1
10
-45.957484689517081
20
8.7717417506526854
30
0
10
-46.125314894269792
20
8.7919115459066504
30
0
10
-46.454527747175469
20
8.8386986930125442
30
0
10
-46.929004949511437
20
8.9282214906884647
30
0
10
-47.522315513411392
20
9.0869109267938555
30
0
10
-48.193962635135115
20
9.3552638050630677
30
0
10
-48.789363637242204
20
9.6998628029402116
30
0
10
-49.302296256471749
20
10.126930183691695
30
0
10
-49.729363637209801
20
10.639862802936864
30
0
10
-50.07396263508052
20
11.235263805056048
30
0
10
-50.342315513354123
20
11.906910926782516
30
0
10
-50.501004949474499
20
12.500221490672931
30
0
10
-50.590527747169048
20
12.97469869299335
30
0
10
-50.63731489429081
20
13.303911545884768
30
0
10
-50.657484689553563
20
13.471741750629395
30
0
0
LINE
5
105
100
AcDbEntity
8
0
100
AcDbLine
10
-50.657484689553563
20
13.471741750629395
30
0
11
-50.657484689553478
21
30.871741750683121
31
0
0
SPLINE
5
106
100
AcDbEntity
8
0
100
AcDbSpline
70
4
71
5
72
21
73
15
74
0
42
0.000000001
43
0.0000000001
44
0.0000000001
40
0
40
0
40
0
40
0
40
0
40
0
40
0.10000000000000001
40
0.20000000000000001
40
0.30000000000000004
40
0.40000000000000002
40
0.5
40
0.59999999999999998
40
0.69999999999999996
40
0.79999999999999993
40
0.89999999999999991
40
1
40
1
40
1
40
1
40
1
40
1
41
1
41
1
41
1
41
1
41
1
41
1
41
1
41
1
41
1
41
1
41
1
41
1
41
1
41
1
41
1
10
-50.657484689553478
20
30.871741750683121
30
0
10
-50.637314894290391
20
31.039571955428173
30
0
10
-50.59052774716821
20
31.368784808320079
30
0
10
-50.501004949473732
20
31.843262010640082
30
0
10
-50.342315513354364
20
32.436572574528263
30
0
10
-50.073962635082019
20
33.108219696251368
30
0
10
-49.729363637210938
20
33.70362069836861
30
0
10
-49.302296256470221
20
34.21655331761491
30
0
10
-48.789363637235979
20
34.643620698370718
30
0
10
-48.193962635124166
20
34.988219696253388
30
0
10
-47.522315513398027
20
35.256572574526068
30
0
10
-46.929004949500268
20
35.415262010629846
30
0
10
-46.454527747169237
20
35.50478480830084
30
0
10
-46.125314894268456
20
35.551571955401698
30
0
10
-45.95748468951858
20
35.571741750652727
30
0
0
LINE
5
107
100
AcDbEntity
8
0
100
AcDbLine
10
-45.95748468951858
20
35.571741750652727
30
0
11
-36.157484689559666
21
35.571741750652727
31
0
0
SPLINE
5
108
100
AcDbEntity
8
0
100
AcDbSpline
70
4
71
5
72
21
73
15
74
0
42
0.000000001
43
0.0000000001
44
0.0000000001
40
0
40
0
40
0
40
0
40
0
40
0
40
0.10000000000000001
40
0.20000000000000001
40
0.30000000000000004
40
0.40000000000000002
40
0.5
40
0.59999999999999998
40
0.69999999999999996
40
0.79999999999999993
40
0.89999999999999991
40
1
40
1
40
1
40
1
40
1
40
1
41
1
41
1
41
1
41
1
41
1
41
1
41
1
41
1
41
1
41
1
41
1
41
1
41
1
41
1
41
1
10
-36.157484689559666
20
35.571741750652727
30
0
10
-35.989654484811247
20
35.551571955392127
30
0
10
-35.660441631913336
20
35.50478480827455
30
0
10
-35.185964429586484
20
35.415262010585998
30
0
10
-34.592653865693691
20
35.256572574472891
30
0
10
-33.921006743972143
20
34.988219696206485
30
0
10
-33.325605741862155
20
34.643620698340634
30
0
10
-32.812673122626833
20
34.216553317604919
30
0
10
-32.385605741882458
20
33.703620698375907
30
0
10
-32.041006744007269
20
33.108219696269593
30
0
10
-31.77265386573298
20
32.436572574549366
30
0
10
-31.613964429616846
20
31.843262010656439
30
0
10
-31.524441631928774
20
31.368784808329004
30
0
10
-31.477654484812959
20
31.039571955430549
30
0
10
-31.457484689553588
20
30.871741750681817
30
0
0
LWPOLYLINE
5
109
100
AcDbEntity
8
0
100
AcDbPolyline
90
4
70
1
43
0.0
10
197.76217756792903
20
23.50000038743012
10
142.76217682287097
20
23.50000038743012
10
142.76217682287097
20
123.50000180304045
10
197.76217756792903
20
123.50000180304043
0
LWPOLYLINE
5
110
100
AcDbEntity
8
0
100
AcDbPolyline
90
4
70
1
43
0.0
10
137.26217433437705
20
58.500001877546239
10
-21.237825620919466
20
58.500001877546239
10
-21.23782562091947
20
123.50000180304043
10
137.26217433437705
20
123.50000180304043
0
LWPOLYLINE
5
111
100
AcDbEntity
8
0
100
AcDbPolyline
90
4
70
1
43
0.0
10
203.26130744061606
20
129.00000192224979
10
-100.73869255938391
20
129.00000192224979
10
-100.73869255938388
20
-1.9999626849329033
10
203.26130744061606
20
-1.9999626849329033
0
LWPOLYLINE
5
112
100
AcDbEntity
8
0
100
AcDbPolyline
90
8
70
1
43
0.0
10
-88.000001311302185
20
10.000000074505824
10
-88.000001311302185
20
30
42
-0.41421356237309453
10
-83.000001311302185
20
35
10
-58.771564618092981
20
35.000000000000007
42
-0.41421356237309553
10
-53.771564618092981
20
30
10
-53.771564618092981
20
10.000000074505824
42
-0.41421356237309542
10
-58.771564618092981
20
5.0000000745058193
10
-83.000001311302185
20
5.0000000745058149
42
-0.41421356237309348
0
LWPOLYLINE
5
113
100
AcDbEntity
8
0
100
AcDbPolyline
90
8
70
1
43
0.0
10
-83.000001236796379
20
84.00000125169754
42
0.41421356237309503
10
-88.000001311302185
20
79.000001177191734
10
-88.000001311302185
20
47.00000062584877
42
0.41421356237309453
10
-83.000001311302185
20
42.00000062584877
10
-34.000000506639481
20
42.00000062584877
42
0.41421356237309453
10
-29.000000432133675
20
47.000000700354576
10
-29.000000432133675
20
79.000001177191734
42
0.41421356237309476
10
-34.000000506639481
20
84.00000125169754
0
LWPOLYLINE
5
114
100
AcDbEntity
8
0
100
AcDbPolyline
90
4
70
1
43
0.0
10
-21.012742212764024
20
5.9400556198343679
10
-21.012742212764024
20
50.940055619834368
10
136.98725778723602
20
50.940055619834368
10
136.98725778723602
20
5.9400556198343679
0
SPLINE
5
115
100
AcDbEntity
8
0
100
AcDbSpline
70
4
71
5
72
91
73
85
74
0
42
0.000000001
43
0.0000000001
44
0.0000000001
40
0
40
0
40
0
40
0
40
0
40
0
40
0.012500000000000001
40
0.025000000000000001
40
0.037500000000000006
40
0.050000000000000003
40
0.0625
40
0.074999999999999997
40
0.087499999999999994
40
0.099999999999999992
40
0.11249999999999999
40
0.12499999999999999
40
0.13749999999999998
40
0.14999999999999999
40
0.16250000000000001
40
0.17500000000000002
40
0.18750000000000003
40
0.20000000000000004
40
0.21250000000000005
40
0.22500000000000006
40
0.23750000000000007
40
0.25000000000000006
40
0.26250000000000007
40
0.27500000000000008
40
0.28750000000000009
40
0.3000000000000001
40
0.31250000000000011
40
0.32500000000000012
40
0.33750000000000013
40
0.35000000000000014
40
0.36250000000000016
40
0.37500000000000017
40
0.38750000000000018
40
0.40000000000000019
40
0.4125000000000002
40
0.42500000000000021
40
0.43750000000000022
40
0.45000000000000023
40
0.46250000000000024
40
0.47500000000000026
40
0.48750000000000027
40
0.50000000000000022
40
0.51250000000000018
40
0.52500000000000013
40
0.53750000000000009
40
0.55000000000000004
40
0.5625
40
0.57499999999999996
40
0.58749999999999991
40
0.59999999999999987
40
0.61249999999999982
40
0.62499999999999978
40
0.63749999999999973
40
0.64999999999999969
40
0.66249999999999964
40
0.6749999999999996
40
0.68749999999999956
40
0.69999999999999951
40
0.71249999999999947
40
0.72499999999999942
40
0.73749999999999938
40
0.74999999999999933
40
0.76249999999999929
40
0.77499999999999925
40
0.7874999999999992
40
0.79999999999999916
40
0.81249999999999911
40
0.82499999999999907
40
0.83749999999999902
40
0.84999999999999898
40
0.86249999999999893
40
0.87499999999999889
40
0.88749999999999885
40
0.8999999999999988
40
0.91249999999999876
40
0.92499999999999871
40
0.93749999999999867
40
0.94999999999999862
40
0.96249999999999858
40
0.97499999999999853
40
0.98749999999999849
40
1
40
1
40
1
40
1
40
1
40
1
41
1
41
1
41
1
41
1
41
1
41
1
41
1
41
1
41
1
41
1
41
1
41
1
41
1
41
1
41
1
41
1
41
1
41
1
41
1
41
1
41
1
41
1
41
1
41
1
41
1
41
1
41
1
41
1
41
1
41
1
41
1
41
1
41
1
41
1
41
1
41
1
41
1
41
1
41
1
41
1
41
1
41
1
41
1
41
1
41
1
41
1
41
1
41
1
41
1
41
1
41
1
41
1
41
1
41
1
41
1
41
1
41
1
41
1
41
1
41
1
41
1
41
1
41
1
41
1
41
1
41
1
41
1
41
1
41
1
41
1
41
1
41
1
41
1
41
1
41
1
41
1
41
1
41
1
41
1
41
1
41
1
41
1
41
1
41
1
41
1
10
-50.657484689553563
20
13.471741750629395
30
0
10
-50.655401090373637
20
13.452174907020524
30
0
10
-50.651027916858602
20
13.412743715669976
30
0
10
-50.64385023325287
20
13.352704425890408
30
0
10
-50.63304380891914
20
13.270866496234703
30
0
10
-50.617483071510165
20
13.165638610135616
30
0
10
-50.599895216580926
20
13.057619573087822
30
0
10
-50.580334416929098
20
12.947094295055093
30
0
10
-50.558891838164556
20
12.834535101275332
30
0
10
-50.535709348888815
20
12.720667566756024
30
0
10
-50.510976391258531
20
12.606460091503278
30
0
10
-50.484893195084233
20
12.492961303840382
30
0
10
-50.457642051992821
20
12.381173641817625
30
0
10
-50.429353658587964
20
12.271905320851054
30
0
10
-50.400079441188325
20
12.165647758715949
30
0
10
-50.369751679018378
20
12.062401720893654
30
0
10
-50.33818296435652
20
11.961668244419812
30
0
10
-50.305123723575271
20
11.862682625262629
30
0
10
-50.270305018982341
20
11.764586762098268
30
0
10
-50.233488836397541
20
11.666632796273781
30
0
10
-50.194511552297243
20
11.568358177384999
30
0
10
-50.153339927390149
20
11.469813058398991
30
0
10
-50.110045554505675
20
11.371447564982793
30
0
10
-50.064761266766659
20
11.273924829931961
30
0
10
-50.017643598907462
20
11.177956959378568
30
0
10
-49.968833197792897
20
11.084137560318911
30
0
10
-49.918415071385169
20
10.992761206645081
30
0
10
-49.866381881278414
20
10.903691502030364
30
0
10
-49.812612688238751
20
10.816501707585802
30
0
10
-49.756852047096871
20
10.730579677030791
30
0
10
-49.69868386865506
20
10.645248799478704
30
0
10
-49.637518775183537
20
10.559876494736839
30
0
10
-49.572546593798705
20
10.474001986000099
30
0
10
-49.502850042455897
20
10.38738631494256
30
0
10
-49.427606576863845
20
10.300023739684898
30
0
10
-49.346257618167726
20
10.212163317481517
30
0
10
-49.258703156255891
20
10.12433096279474
30
0
10
-49.165458929780769
20
10.03734128861848
30
0
10
-49.067899522820724
20
9.9523405808893468
30
0
10
-48.968061035761046
20
9.8706817037486942
30
0
10
-48.868267637817688
20
9.7937299536064799
30
0
10
-48.77082364363244
20
9.7226964829653948
30
0
10
-48.677660654042811
20
9.65844883131623
30
0
10
-48.590044793035496
20
9.6013571083665585
30
0
10
-48.508155917063227
20
9.5510597105222566
30
0
10
-48.431121209288079
20
9.5065174655133333
30
0
10
-48.357486463074096
20
9.4663449896893717
30
0
10
-48.28558427473731
20
9.4290786156718873
30
0
10
-48.21390853705185
20
9.3934434664523501
30
0
10
-48.141573085553006
20
9.358686073672418
30
0
10
-48.068390671711541
20
9.3246213769261406
30
0
10
-47.994571194005182
20
9.2913947830274264
30
0
10
-47.920517290653386
20
9.2593170332929056
30
0
10
-47.84659654771751
20
9.2286816509273706
30
0
10
-47.772882022557319
20
9.199558568963063
30
0
10
-47.699215181044572
20
9.1718294838774224
30
0
10
-47.625359833268163
20
9.1452911200414473
30
0
10
-47.551120946752626
20
9.1197327566439732
30
0
10
-47.476486951046112
20
9.0950298890126628
30
0
10
-47.401736857783916
20
9.0712155466901319
30
0
10
-47.327314544604974
20
9.0484111078513134
30
0
10
-47.253721259463916
20
9.0267669950481366
30
0
10
-47.181406801549066
20
9.006404995571863
30
0
10
-47.110647926553817
20
8.987346986735437
30
0
10
-47.041483984792485
20
8.9695002015410861
30
0
10
-46.973708574124828
20
8.9527003698365544
30
0
10
-46.90685061130587
20
8.9367391586521556
30
0
10
-46.84014855831974
20
8.9213977290094864
30
0
10
-46.772557300399527
20
8.906478212683151
30
0
10
-46.703099347724816
20
8.8918355893362246
30
0
10
-46.631216491766466
20
8.8774124635304403
30
0
10
-46.55707083325332
20
8.8632661364148166
30
0
10
-46.481994948465506
20
8.8496158314747717
30
0
10
-46.408170091658135
20
8.8367874681669498
30
0
10
-46.337949477579656
20
8.8251107750859514
30
0
10
-46.273330673198444
20
8.814837553221329
30
0
10
-46.21528566975546
20
8.8060376776422533
30
0
10
-46.163401130053821
20
8.7985463896844536
30
0
10
-46.116536655436853
20
8.7920835853348649
30
0
10
-46.073275987117768
20
8.7863371218941086
30
0
10
-46.032548250762929
20
8.7810772818876988
30
0
10
-46.001594627005431
20
8.7771727177751586
30
0
10
-45.979214409943651
20
8.7743975376876584
30
0
10
-45.964666001280918
20
8.7726156467921896
30
0
10
-45.957484689517081
20
8.7717417506526854
30
0
0
ENDSEC
0
SECTION
2
OBJECTS
0
DICTIONARY
5
C
100
AcDbDictionary
3
ACAD_GROUP
350
D
3
ACAD_MLINESTYLE
350
17
0
DICTIONARY
5
D
100
AcDbDictionary
0
DICTIONARY
5
1A
330
C
100
AcDbDictionary
0
DICTIONARY
5
17
100
AcDbDictionary
0
ENDSEC
0
EOF
