0
SECTION
2
HEADER
9
$INSUNITS
70
4
9
$ACADVER
1
AC1014
9
$HANDSEED
5
FFFF
0
ENDSEC
0
SECTION
2
TABLES
0
TABLE
2
VPORT
5
8
100
AcDbSymbolTable
0
ENDTAB
0
TABLE
2
LTYPE
5
5
100
AcDbSymbolTable
0
LTYPE
5
14
100
AcDbSymbolTableRecord
100
AcDbLinetypeTableRecord
2
BYBLOCK
70
0
0
LTYPE
5
15
100
AcDbSymbolTableRecord
100
AcDbLinetypeTableRecord
2
BYLAYER
70
0
0
ENDTAB
0
TABLE
2
LAYER
5
2
100
AcDbSymbolTable
70
2
0
LAYER
5
50
100
AcDbSymbolTableRecord
100
AcDbLayerTableRecord
2
0
70
0
6
CONTINUOUS
0
ENDTAB
0
TABLE
2
STYLE
5
3
100
AcDbSymbolTable
70
1
0
STYLE
5
11
100
AcDbSymbolTableRecord
100
AcDbTextStyleTableRecord
2
STANDARD
70
0
0
ENDTAB
0
TABLE
2
VIEW
5
6
100
AcDbSymbolTable
70
0
0
ENDTAB
0
TABLE
2
UCS
5
7
100
AcDbSymbolTable
70
0
0
ENDTAB
0
TABLE
2
APPID
5
9
100
AcDbSymbolTable
70
2
0
APPID
5
12
100
AcDbSymbolTableRecord
100
AcDbRegAppTableRecord
2
ACAD
70
0
0
ENDTAB
0
TABLE
2
DIMSTYLE
5
A
100
AcDbSymbolTable
70
1
0
ENDTAB
0
TABLE
2
BLOCK_RECORD
5
1
100
AcDbSymbolTable
70
1
0
BLOCK_RECORD
5
1F
100
AcDbSymbolTableRecord
100
AcDbBlockTableRecord
2
*MODEL_SPACE
0
BLOCK_RECORD
5
1B
100
AcDbSymbolTableRecord
100
AcDbBlockTableRecord
2
*PAPER_SPACE
0
ENDTAB
0
ENDSEC
0
SECTION
2
BLOCKS
0
BLOCK
5
20
100
AcDbEntity
100
AcDbBlockBegin
2
*MODEL_SPACE
0
ENDBLK
5
21
100
AcDbEntity
100
AcDbBlockEnd
0
BLOCK
5
1C
100
AcDbEntity
100
AcDbBlockBegin
2
*PAPER_SPACE
0
ENDBLK
5
1D
100
AcDbEntity
100
AcDbBlockEnd
0
ENDSEC
0
SECTION
2
ENTITIES
0
LWPOLYLINE
5
100
100
AcDbEntity
8
0
100
AcDbPolyline
90
30
70
1
43
0.0
10
161.59999639126818
20
2.799999825656653
10
165.15130165738239
20
4.2803079489623332
10
198.55130817515027
20
37.980308741704107
10
200.00000290903583
20
41.500000618398417
10
200.00000290903583
20
90.000001341104507
10
198.55903050991091
20
93.511884388162031
10
165.15902399214298
20
127.36026244441659
10
161.59999639126778
20
128.84837939735928
10
112.74449658641247
20
128.84837939735928
10
109.20353314411091
20
127.37847541592365
10
79.000001180501002
20
97.081961681143127
10
79.000001180501016
20
97.118689425250409
10
75.000002909035715
20
97.118689425250409
10
45.159023992142934
20
127.36026244441661
10
41.599996391267744
20
128.84837939735928
10
-7.2555034135875474
20
128.84837939735928
10
-10.796466855889102
20
127.37847541592362
10
-44.540962261800473
20
93.530097359668844
10
-45.999998819498899
20
90.000001341104507
10
-45.999998819498899
20
41.500000618398417
10
-44.495778756778037
20
37.925154799328219
10
-10.788035240007989
20
4.2618574356436811
10
-7.2555034135873431
20
2.799999825656653
10
41.599996391267965
20
2.7999998256566516
10
45.151301657382405
20
4.2803079489623395
10
75.0000029090358
20
34.397106139044176
10
79.000001180501101
20
34.397106139044176
10
79.000001180501101
20
34.433593131734114
10
109.21129591861309
20
4.2621342203714008
10
112.74449658641267
20
2.7999998256566627
0
LWPOLYLINE
5
101
100
AcDbEntity
8
0
100
AcDbPolyline
90
8
70
1
43
0.0
10
41.599996391267744
20
123.84837939735928
10
75.000002909035715
20
90.000001341104763
10
75.0000029090358
20
41.500000618398417
10
41.599996391267965
20
7.7999998256566538
10
-7.2555034135873431
20
7.7999998256566538
10
-40.999998819498899
20
41.500000618398417
10
-40.999998819498899
20
90.000001341104507
10
-7.2555034135875474
20
123.84837939735928
0
LWPOLYLINE
5
102
100
AcDbEntity
8
0
100
AcDbPolyline
90
8
70
1
43
0.0
10
112.74449658641247
20
123.84837939735928
10
161.59999639126778
20
123.84837939735928
10
195.00000290903583
20
90.000001341104507
10
195.00000290903583
20
41.500000618398417
10
161.59999639126795
20
7.7999998256566538
10
112.74449658641267
20
7.7999998256566627
10
79.000001180501101
20
41.500000618398417
10
79.000001180501016
20
90.000001341104763
0
ENDSEC
0
SECTION
2
OBJECTS
0
DICTIONARY
5
C
100
AcDbDictionary
3
ACAD_GROUP
350
D
3
ACAD_MLINESTYLE
350
17
0
DICTIONARY
5
D
100
AcDbDictionary
0
DICTIONARY
5
1A
330
C
100
AcDbDictionary
0
DICTIONARY
5
17
100
AcDbDictionary
0
ENDSEC
0
EOF
