0
SECTION
2
HEADER
9
$INSUNITS
70
4
9
$ACADVER
1
AC1014
9
$HANDSEED
5
FFFF
0
ENDSEC
0
SECTION
2
TABLES
0
TABLE
2
VPORT
5
8
100
AcDbSymbolTable
0
ENDTAB
0
TABLE
2
LTYPE
5
5
100
AcDbSymbolTable
0
LTYPE
5
14
100
AcDbSymbolTableRecord
100
AcDbLinetypeTableRecord
2
BYBLOCK
70
0
0
LTYPE
5
15
100
AcDbSymbolTableRecord
100
AcDbLinetypeTableRecord
2
BYLAYER
70
0
0
ENDTAB
0
TABLE
2
LAYER
5
2
100
AcDbSymbolTable
70
2
0
LAYER
5
50
100
AcDbSymbolTableRecord
100
AcDbLayerTableRecord
2
0
70
0
6
CONTINUOUS
0
ENDTAB
0
TABLE
2
STYLE
5
3
100
AcDbSymbolTable
70
1
0
STYLE
5
11
100
AcDbSymbolTableRecord
100
AcDbTextStyleTableRecord
2
STANDARD
70
0
0
ENDTAB
0
TABLE
2
VIEW
5
6
100
AcDbSymbolTable
70
0
0
ENDTAB
0
TABLE
2
UCS
5
7
100
AcDbSymbolTable
70
0
0
ENDTAB
0
TABLE
2
APPID
5
9
100
AcDbSymbolTable
70
2
0
APPID
5
12
100
AcDbSymbolTableRecord
100
AcDbRegAppTableRecord
2
ACAD
70
0
0
ENDTAB
0
TABLE
2
DIMSTYLE
5
A
100
AcDbSymbolTable
70
1
0
ENDTAB
0
TABLE
2
BLOCK_RECORD
5
1
100
AcDbSymbolTable
70
1
0
BLOCK_RECORD
5
1F
100
AcDbSymbolTableRecord
100
AcDbBlockTableRecord
2
*MODEL_SPACE
0
BLOCK_RECORD
5
1B
100
AcDbSymbolTableRecord
100
AcDbBlockTableRecord
2
*PAPER_SPACE
0
ENDTAB
0
ENDSEC
0
SECTION
2
BLOCKS
0
BLOCK
5
20
100
AcDbEntity
100
AcDbBlockBegin
2
*MODEL_SPACE
0
ENDBLK
5
21
100
AcDbEntity
100
AcDbBlockEnd
0
BLOCK
5
1C
100
AcDbEntity
100
AcDbBlockBegin
2
*PAPER_SPACE
0
ENDBLK
5
1D
100
AcDbEntity
100
AcDbBlockEnd
0
ENDSEC
0
SECTION
2
ENTITIES
0
LINE
5
100
100
AcDbEntity
8
0
100
AcDbLine
10
-51.870509997736143
20
5.3672355496052715
30
0
11
-51.87050999773605
21
22.767235549658984
31
0
0
SPLINE
5
101
100
AcDbEntity
8
0
100
AcDbSpline
70
4
71
5
72
21
73
15
74
0
42
0.000000001
43
0.0000000001
44
0.0000000001
40
0
40
0
40
0
40
0
40
0
40
0
40
0.10000000000000001
40
0.20000000000000001
40
0.30000000000000004
40
0.40000000000000002
40
0.5
40
0.59999999999999998
40
0.69999999999999996
40
0.79999999999999993
40
0.89999999999999991
40
1
40
1
40
1
40
1
40
1
40
1
41
1
41
1
41
1
41
1
41
1
41
1
41
1
41
1
41
1
41
1
41
1
41
1
41
1
41
1
41
1
10
-51.87050999773605
20
22.767235549658984
30
0
10
-51.850340202472971
20
22.935065754404039
30
0
10
-51.80355305535079
20
23.264278607295946
30
0
10
-51.714030257656312
20
23.738755809615949
30
0
10
-51.555340821536937
20
24.33206637350413
30
0
10
-51.286987943264599
20
25.003713495227235
30
0
10
-50.942388945393517
20
25.599114497344473
30
0
10
-50.515321564652794
20
26.112047116590773
30
0
10
-50.002388945418559
20
26.539114497346588
30
0
10
-49.406987943306746
20
26.883713495229259
30
0
10
-48.7353408215806
20
27.152066373501931
30
0
10
-48.142030257682848
20
27.310755809605709
30
0
10
-47.667553055351817
20
27.400278607276704
30
0
10
-47.338340202451036
20
27.447065754377565
30
0
10
-47.17050999770116
20
27.467235549628594
30
0
0
LINE
5
102
100
AcDbEntity
8
0
100
AcDbLine
10
-47.17050999770116
20
27.467235549628594
30
0
11
-37.370509997742225
21
27.467235549628594
31
0
0
SPLINE
5
103
100
AcDbEntity
8
0
100
AcDbSpline
70
4
71
5
72
21
73
15
74
0
42
0.000000001
43
0.0000000001
44
0.0000000001
40
0
40
0
40
0
40
0
40
0
40
0
40
0.10000000000000001
40
0.20000000000000001
40
0.30000000000000004
40
0.40000000000000002
40
0.5
40
0.59999999999999998
40
0.69999999999999996
40
0.79999999999999993
40
0.89999999999999991
40
1
40
1
40
1
40
1
40
1
40
1
41
1
41
1
41
1
41
1
41
1
41
1
41
1
41
1
41
1
41
1
41
1
41
1
41
1
41
1
41
1
10
-37.370509997742225
20
27.467235549628594
30
0
10
-37.202679792993806
20
27.447065754367994
30
0
10
-36.873466940095895
20
27.400278607250414
30
0
10
-36.398989737769043
20
27.310755809561865
30
0
10
-35.80567917387625
20
27.152066373448758
30
0
10
-35.134032052154708
20
26.883713495182349
30
0
10
-34.538631050044714
20
26.539114497316501
30
0
10
-34.025698430809392
20
26.11204711658079
30
0
10
-33.598631050065016
20
25.599114497351778
30
0
10
-33.254032052189828
20
25.00371349524546
30
0
10
-32.985679173915543
20
24.332066373525233
30
0
10
-32.826989737799408
20
23.738755809632302
30
0
10
-32.737466940111332
20
23.26427860730487
30
0
10
-32.690679792995518
20
22.935065754406416
30
0
10
-32.670509997736147
20
22.767235549657684
30
0
0
LINE
5
104
100
AcDbEntity
8
0
100
AcDbLine
10
-32.670509997736147
20
22.767235549657684
30
0
11
-32.670509997736126
21
5.3672355496042812
31
0
0
SPLINE
5
105
100
AcDbEntity
8
0
100
AcDbSpline
70
4
71
5
72
21
73
15
74
0
42
0.000000001
43
0.0000000001
44
0.0000000001
40
-1
40
-1
40
-1
40
-1
40
-1
40
-1
40
-0.89999999999999991
40
-0.79999999999999993
40
-0.69999999999999996
40
-0.59999999999999998
40
-0.5
40
-0.40000000000000002
40
-0.30000000000000004
40
-0.20000000000000001
40
-0.10000000000000001
40
0
40
0
40
0
40
0
40
0
40
0
41
1
41
1
41
1
41
1
41
1
41
1
41
1
41
1
41
1
41
1
41
1
41
1
41
1
41
1
41
1
10
-32.670509997736126
20
5.367235549604283
30
0
10
-32.690679792993407
20
5.199405344860704
30
0
10
-32.737466940105449
20
4.870192491971272
30
0
10
-32.82698973778917
20
4.3957152896535119
30
0
10
-32.985679173902177
20
3.8024047257659617
30
0
10
-33.25403205217691
20
3.1307576040418623
30
0
10
-33.598631050056241
20
2.5353566019237679
30
0
10
-34.025698430807331
20
2.0224239826783692
30
0
10
-34.538631050050348
20
1.5953566019254666
30
0
10
-35.134032052166745
20
1.2507576040460404
30
0
10
-35.805679173891079
20
0.98240472577415916
30
0
10
-36.398989737781569
20
0.82371528966672047
30
0
10
-36.87346694010337
20
0.7341924919895032
30
0
10
-37.202679792996364
20
0.68740534488288263
30
0
10
-37.370509997741934
20
0.66723554962858589
30
0
0
LINE
5
106
100
AcDbEntity
8
0
100
AcDbLine
10
-37.370509997741934
20
0.66723554962858622
30
0
11
-47.170509997699661
21
0.66723554962856035
31
0
0
SPLINE
5
107
100
AcDbEntity
8
0
100
AcDbSpline
70
4
71
5
72
21
73
15
74
0
42
0.000000001
43
0.0000000001
44
0.0000000001
40
-1
40
-1
40
-1
40
-1
40
-1
40
-1
40
-0.89999999999999991
40
-0.79999999999999993
40
-0.69999999999999996
40
-0.59999999999999998
40
-0.5
40
-0.40000000000000002
40
-0.30000000000000004
40
-0.20000000000000001
40
-0.10000000000000001
40
0
40
0
40
0
40
0
40
0
40
0
41
1
41
1
41
1
41
1
41
1
41
1
41
1
41
1
41
1
41
1
41
1
41
1
41
1
41
1
41
1
10
-47.170509997699661
20
0.66723554962856035
30
0
10
-47.338340202452372
20
0.68740534488252625
30
0
10
-47.667553055358042
20
0.73419249198842074
30
0
10
-48.142030257694017
20
0.82371528966434016
30
0
10
-48.735340821593965
20
0.9824047257697327
30
0
10
-49.406987943317695
20
1.2507576040389439
30
0
10
-50.002388945424777
20
1.5953566019160874
30
0
10
-50.515321564654329
20
2.0224239826675712
30
0
10
-50.942388945392381
20
2.5353566019127411
30
0
10
-51.2869879432631
20
3.1307576040319236
30
0
10
-51.555340821536703
20
3.8024047257583899
30
0
10
-51.714030257657072
20
4.3957152896488063
30
0
10
-51.803553055351628
20
4.8701924919692265
30
0
10
-51.85034020247339
20
5.1994053448606437
30
0
10
-51.870509997736143
20
5.3672355496052715
30
0
0
LWPOLYLINE
5
108
100
AcDbEntity
8
0
100
AcDbPolyline
90
9
70
1
43
0.0
10
-84.213026619484808
20
-3.1045061265183098
10
-89.213026619484793
20
1.8954938734816889
10
-89.213026619484864
20
21.895493798975863
10
-84.21302661948485
20
26.895493798975856
10
-59.000000885656227
20
26.895493798975856
10
-54.98458992627566
20
21.895493798975878
10
-54.984589926275603
20
1.8954938734816862
10
-59.00000088565622
20
-3.0066061276496852
42
-0.04959389373479868
10
-59.984589926275589
20
-3.1045061265183138
0
LWPOLYLINE
5
109
100
AcDbEntity
8
0
100
AcDbPolyline
90
8
70
1
43
0.0
10
-30.213025740316482
20
70.89549497616764
10
-30.213025740316386
20
38.895494499330461
10
-35.213025814822203
20
33.895494424824626
10
-84.213026619484907
20
33.895494424824626
10
-89.213026619484893
20
38.895494424824612
10
-89.213026619484992
20
70.895494976167626
10
-84.213026544979201
20
75.895495050673418
10
-35.213025814822302
20
75.895495050673432
0
LWPOLYLINE
5
110
100
AcDbEntity
8
0
100
AcDbPolyline
90
11
70
1
43
0.0
10
-30.213025740316361
20
-8.000000185246428
10
-25.213025740316361
20
-3.0000001107407281
10
-25.213025740316482
20
75.896177610718425
10
-25.213000372529017
20
81.000001206993915
10
-27.000000402331338
20
82.787001236796399
10
-94.213026619484992
20
82.787001236796243
10
-94.213026619484765
20
-3.1045061265183271
10
-89.213026619484808
20
-8.1045061265183094
10
-84.213026619484808
20
-8.1045061265183094
10
-58.980586464338749
20
-8.0065684355321061
10
-58.584589926275569
20
-8.0000001852465346
0
ENDSEC
0
SECTION
2
OBJECTS
0
DICTIONARY
5
C
100
AcDbDictionary
3
ACAD_GROUP
350
D
3
ACAD_MLINESTYLE
350
17
0
DICTIONARY
5
D
100
AcDbDictionary
0
DICTIONARY
5
1A
330
C
100
AcDbDictionary
0
DICTIONARY
5
17
100
AcDbDictionary
0
ENDSEC
0
EOF
