0
SECTION
2
HEADER
9
$INSUNITS
70
4
9
$ACADVER
1
AC1014
9
$HANDSEED
5
FFFF
0
ENDSEC
0
SECTION
2
TABLES
0
TABLE
2
VPORT
5
8
100
AcDbSymbolTable
0
ENDTAB
0
TABLE
2
LTYPE
5
5
100
AcDbSymbolTable
0
LTYPE
5
14
100
AcDbSymbolTableRecord
100
AcDbLinetypeTableRecord
2
BYBLOCK
70
0
0
LTYPE
5
15
100
AcDbSymbolTableRecord
100
AcDbLinetypeTableRecord
2
BYLAYER
70
0
0
ENDTAB
0
TABLE
2
LAYER
5
2
100
AcDbSymbolTable
70
2
0
LAYER
5
50
100
AcDbSymbolTableRecord
100
AcDbLayerTableRecord
2
0
70
0
6
CONTINUOUS
0
ENDTAB
0
TABLE
2
STYLE
5
3
100
AcDbSymbolTable
70
1
0
STYLE
5
11
100
AcDbSymbolTableRecord
100
AcDbTextStyleTableRecord
2
STANDARD
70
0
0
ENDTAB
0
TABLE
2
VIEW
5
6
100
AcDbSymbolTable
70
0
0
ENDTAB
0
TABLE
2
UCS
5
7
100
AcDbSymbolTable
70
0
0
ENDTAB
0
TABLE
2
APPID
5
9
100
AcDbSymbolTable
70
2
0
APPID
5
12
100
AcDbSymbolTableRecord
100
AcDbRegAppTableRecord
2
ACAD
70
0
0
ENDTAB
0
TABLE
2
DIMSTYLE
5
A
100
AcDbSymbolTable
70
1
0
ENDTAB
0
TABLE
2
BLOCK_RECORD
5
1
100
AcDbSymbolTable
70
1
0
BLOCK_RECORD
5
1F
100
AcDbSymbolTableRecord
100
AcDbBlockTableRecord
2
*MODEL_SPACE
0
BLOCK_RECORD
5
1B
100
AcDbSymbolTableRecord
100
AcDbBlockTableRecord
2
*PAPER_SPACE
0
ENDTAB
0
ENDSEC
0
SECTION
2
BLOCKS
0
BLOCK
5
20
100
AcDbEntity
100
AcDbBlockBegin
2
*MODEL_SPACE
0
ENDBLK
5
21
100
AcDbEntity
100
AcDbBlockEnd
0
BLOCK
5
1C
100
AcDbEntity
100
AcDbBlockBegin
2
*PAPER_SPACE
0
ENDBLK
5
1D
100
AcDbEntity
100
AcDbBlockEnd
0
ENDSEC
0
SECTION
2
ENTITIES
0
CIRCLE
5
100
100
AcDbEntity
8
0
100
AcDbCircle
10
200.76139088494142
20
0.50002737808790088
30
0
40
1.0000000000000142
210
0
220
-0
230
1
0
CIRCLE
5
101
100
AcDbEntity
8
0
100
AcDbCircle
10
177.4413908849414
20
0.5000273780879031
30
0
40
1.0000000000000142
210
0
220
-0
230
1
0
CIRCLE
5
102
100
AcDbEntity
8
0
100
AcDbCircle
10
61.267528368086026
20
0.5000273780879031
30
0
40
1.0000000000000053
210
7.3955709864469857e-32
220
-8.2107331894031643e-48
230
1
0
CIRCLE
5
103
100
AcDbEntity
8
0
100
AcDbCircle
10
200.76139088494116
20
126.50002737808789
30
0
40
0.99999999999997868
210
0
220
-0
230
1
0
CIRCLE
5
104
100
AcDbEntity
8
0
100
AcDbCircle
10
93.267528368086005
20
0.50002737808789977
30
0
40
0.99999999999999645
210
0
220
-0
230
1
0
CIRCLE
5
105
100
AcDbEntity
8
0
100
AcDbCircle
10
200.76139088494116
20
104.00002737808789
30
0
40
1.0000000000000142
210
0
220
-0
230
1
0
CIRCLE
5
106
100
AcDbEntity
8
0
100
AcDbCircle
10
-20.681807200721867
20
0.50002737808790754
30
0
40
1.0000000000000009
210
2.4651903288156619e-32
220
-2.736911063134412e-48
230
1
0
CIRCLE
5
107
100
AcDbEntity
8
0
100
AcDbCircle
10
200.76139088494142
20
23.000027378087896
30
0
40
0.99999999999997868
210
0
220
-0
230
1
0
CIRCLE
5
108
100
AcDbEntity
8
0
100
AcDbCircle
10
-98.238609115058736
20
66.007282931070407
30
0
40
0.99999999999999645
210
0
220
-0
230
1
0
CIRCLE
5
109
100
AcDbEntity
8
0
100
AcDbCircle
10
-98.238609115058836
20
126.50002737808789
30
0
40
1.0000000000000142
210
1.4791141972893971e-31
220
-1.9158377441940686e-47
230
1
0
CIRCLE
5
110
100
AcDbEntity
8
0
100
AcDbCircle
10
-98.238609115058594
20
0.50002737808790088
30
0
40
0.99999999999999645
210
0
220
-0
230
1
0
CIRCLE
5
111
100
AcDbEntity
8
0
100
AcDbCircle
10
-71.622646525693824
20
80.000001192092839
30
0
40
5.9999999999999964
210
-1.4791141972893971e-31
220
1.6421466378806277e-47
230
1
0
CIRCLE
5
112
100
AcDbEntity
8
0
100
AcDbCircle
10
-71.622646525693824
20
55.00002737808785
30
0
40
6.0000000000000053
210
2.4651903288156619e-32
220
-2.7369110631343956e-48
230
1
0
CIRCLE
5
113
100
AcDbEntity
8
0
100
AcDbCircle
10
189.88512602441011
20
118.2693069958741
30
0
40
2.2315769690244731
210
-2.4651903288156624e-32
220
5.386620369748622e-62
230
1
0
CIRCLE
5
114
100
AcDbEntity
8
0
100
AcDbCircle
10
189.90708751244895
20
13.228759825336244
30
0
40
2.2315769690244731
210
-2.4651903288156624e-32
220
3.0551284993880458e-61
230
1
0
CIRCLE
5
115
100
AcDbEntity
8
0
100
AcDbCircle
10
84.678202859534139
20
13.079302356598795
30
0
40
2.2315769690244731
210
7.3955709864469868e-32
220
-2.6016472763713404e-61
230
1
0
CIRCLE
5
116
100
AcDbEntity
8
0
100
AcDbCircle
10
69.856853876638525
20
13.079302356598802
30
0
40
2.2315769690244731
210
7.3955709864469868e-32
220
-4.1574010958365457e-61
230
1
0
CIRCLE
5
117
100
AcDbEntity
8
0
100
AcDbCircle
10
84.768400046907132
20
118.2717148573367
30
0
40
2.2315769690244731
210
7.3955709864469868e-32
220
-3.2360272783019655e-61
230
1
0
CIRCLE
5
118
100
AcDbEntity
8
0
100
AcDbCircle
10
69.90028768457141
20
118.31063661744741
30
0
40
2.2315769690244731
210
7.3955709864469868e-32
220
-3.2360272783019116e-61
230
1
0
CIRCLE
5
119
100
AcDbEntity
8
0
100
AcDbCircle
10
-35.126681366955331
20
13.07930235659879
30
0
40
2.2315769690244731
210
7.3955709864469868e-32
220
-3.3795241861035209e-61
230
1
0
CIRCLE
5
120
100
AcDbEntity
8
0
100
AcDbCircle
10
-35.188464614659239
20
118.31063661744739
30
0
40
2.2315769690244731
210
7.3955709864469868e-32
220
-4.0139041880339912e-61
230
1
0
LWPOLYLINE
5
121
100
AcDbEntity
8
0
100
AcDbPolyline
90
8
70
1
43
0.0
10
-42.508493859904874
20
91.765049350386661
10
-8.7639984539933877
20
125.61342740664118
10
43.641496872450283
20
125.60432092088767
10
75.261989589780597
20
93.559345383177316
10
75.261989589780597
20
37.948553378721058
10
43.637635705069911
20
6.0401538873092475
10
-8.7601170667424189
20
6.0310670230137813
10
-42.504612472653903
20
39.731067815755559
0
LWPOLYLINE
5
122
100
AcDbEntity
8
0
100
AcDbPolyline
90
8
70
1
43
0.0
10
79.261987861245856
20
37.966796875065995
10
79.261987861245856
20
93.540981511123647
10
110.97176698455425
20
125.348379397359
10
163.89404807415971
20
125.348379397359
10
197.04150339021817
20
91.755942864633113
10
197.03764222283777
20
39.740154680050992
10
163.63763570506987
20
6.0401538873092253
10
111.23988293325755
20
6.0310670230137564
0
LWPOLYLINE
5
123
100
AcDbEntity
8
0
100
AcDbPolyline
90
4
70
1
43
0.0
10
203.26139088494133
20
129.00002737808788
10
-100.73860911505864
20
129.00002737808788
10
-100.73860911505864
20
-1.9999726219120895
10
203.26139088494133
20
-1.999972621912097
0
ENDSEC
0
SECTION
2
OBJECTS
0
DICTIONARY
5
C
100
AcDbDictionary
3
ACAD_GROUP
350
D
3
ACAD_MLINESTYLE
350
17
0
DICTIONARY
5
D
100
AcDbDictionary
0
DICTIONARY
5
1A
330
C
100
AcDbDictionary
0
DICTIONARY
5
17
100
AcDbDictionary
0
ENDSEC
0
EOF
