0
SECTION
2
HEADER
9
$INSUNITS
70
4
9
$ACADVER
1
AC1014
9
$HANDSEED
5
FFFF
0
ENDSEC
0
SECTION
2
TABLES
0
TABLE
2
VPORT
5
8
100
AcDbSymbolTable
0
ENDTAB
0
TABLE
2
LTYPE
5
5
100
AcDbSymbolTable
0
LTYPE
5
14
100
AcDbSymbolTableRecord
100
AcDbLinetypeTableRecord
2
BYBLOCK
70
0
0
LTYPE
5
15
100
AcDbSymbolTableRecord
100
AcDbLinetypeTableRecord
2
BYLAYER
70
0
0
ENDTAB
0
TABLE
2
LAYER
5
2
100
AcDbSymbolTable
70
2
0
LAYER
5
50
100
AcDbSymbolTableRecord
100
AcDbLayerTableRecord
2
0
70
0
6
CONTINUOUS
0
ENDTAB
0
TABLE
2
STYLE
5
3
100
AcDbSymbolTable
70
1
0
STYLE
5
11
100
AcDbSymbolTableRecord
100
AcDbTextStyleTableRecord
2
STANDARD
70
0
0
ENDTAB
0
TABLE
2
VIEW
5
6
100
AcDbSymbolTable
70
0
0
ENDTAB
0
TABLE
2
UCS
5
7
100
AcDbSymbolTable
70
0
0
ENDTAB
0
TABLE
2
APPID
5
9
100
AcDbSymbolTable
70
2
0
APPID
5
12
100
AcDbSymbolTableRecord
100
AcDbRegAppTableRecord
2
ACAD
70
0
0
ENDTAB
0
TABLE
2
DIMSTYLE
5
A
100
AcDbSymbolTable
70
1
0
ENDTAB
0
TABLE
2
BLOCK_RECORD
5
1
100
AcDbSymbolTable
70
1
0
BLOCK_RECORD
5
1F
100
AcDbSymbolTableRecord
100
AcDbBlockTableRecord
2
*MODEL_SPACE
0
BLOCK_RECORD
5
1B
100
AcDbSymbolTableRecord
100
AcDbBlockTableRecord
2
*PAPER_SPACE
0
ENDTAB
0
ENDSEC
0
SECTION
2
BLOCKS
0
BLOCK
5
20
100
AcDbEntity
100
AcDbBlockBegin
2
*MODEL_SPACE
0
ENDBLK
5
21
100
AcDbEntity
100
AcDbBlockEnd
0
BLOCK
5
1C
100
AcDbEntity
100
AcDbBlockBegin
2
*PAPER_SPACE
0
ENDBLK
5
1D
100
AcDbEntity
100
AcDbBlockEnd
0
ENDSEC
0
SECTION
2
ENTITIES
0
LWPOLYLINE
5
100
100
AcDbEntity
8
0
100
AcDbPolyline
90
30
70
1
43
0.0
10
44.424006113117109
20
-58.718448409695029
10
44.424006113117088
20
-84.718447884431058
10
96.951717867567098
20
-84.718447884431143
10
96.951717867567055
20
116.28155159030229
10
25.063505347746357
20
116.28155159030234
10
25.063505347746322
20
106.34352332145612
10
22.000000327825564
20
106.34352332145612
10
22.000000327825564
20
86.353353786440451
10
25.063505347746322
20
86.353353786440451
10
25.063505347746322
20
71.0000010579829
10
22.000000327825564
20
71.0000010579829
10
22.000000327825564
20
54.334448013155225
10
25.063505347746322
20
54.334448013155225
10
25.063505347746322
20
39.000000581145748
10
22.000000327825564
20
39.000000581145748
10
22.000000327825564
20
19.221783907482806
10
25.063505347746322
20
19.221783907482806
10
25.0635053477463
20
0.051349236821280897
10
22.063505347746304
20
0.051349236821279842
10
22.063505347746304
20
-11.948650763178721
10
25.0635053477463
20
-11.948650763178721
10
25.0635053477463
20
-19.748332251106078
10
22.063505347746304
20
-19.748332251106078
10
22.063505347746304
20
-34.748332251106078
10
25.0635053477463
20
-34.748332251106078
10
25.0635053477463
20
-42.805012761069968
10
22.063505347746304
20
-42.805012761069968
10
22.063505347746304
20
-54.805012761069975
10
25.0635053477463
20
-54.805012761069975
10
25.063505347746279
20
-58.718448409695007
0
ENDSEC
0
SECTION
2
OBJECTS
0
DICTIONARY
5
C
100
AcDbDictionary
3
ACAD_GROUP
350
D
3
ACAD_MLINESTYLE
350
17
0
DICTIONARY
5
D
100
AcDbDictionary
0
DICTIONARY
5
1A
330
C
100
AcDbDictionary
0
DICTIONARY
5
17
100
AcDbDictionary
0
ENDSEC
0
EOF
