0
SECTION
2
HEADER
9
$INSUNITS
70
4
9
$ACADVER
1
AC1014
9
$HANDSEED
5
FFFF
0
ENDSEC
0
SECTION
2
TABLES
0
TABLE
2
VPORT
5
8
100
AcDbSymbolTable
0
ENDTAB
0
TABLE
2
LTYPE
5
5
100
AcDbSymbolTable
0
LTYPE
5
14
100
AcDbSymbolTableRecord
100
AcDbLinetypeTableRecord
2
BYBLOCK
70
0
0
LTYPE
5
15
100
AcDbSymbolTableRecord
100
AcDbLinetypeTableRecord
2
BYLAYER
70
0
0
ENDTAB
0
TABLE
2
LAYER
5
2
100
AcDbSymbolTable
70
2
0
LAYER
5
50
100
AcDbSymbolTableRecord
100
AcDbLayerTableRecord
2
0
70
0
6
CONTINUOUS
0
ENDTAB
0
TABLE
2
STYLE
5
3
100
AcDbSymbolTable
70
1
0
STYLE
5
11
100
AcDbSymbolTableRecord
100
AcDbTextStyleTableRecord
2
STANDARD
70
0
0
ENDTAB
0
TABLE
2
VIEW
5
6
100
AcDbSymbolTable
70
0
0
ENDTAB
0
TABLE
2
UCS
5
7
100
AcDbSymbolTable
70
0
0
ENDTAB
0
TABLE
2
APPID
5
9
100
AcDbSymbolTable
70
2
0
APPID
5
12
100
AcDbSymbolTableRecord
100
AcDbRegAppTableRecord
2
ACAD
70
0
0
ENDTAB
0
TABLE
2
DIMSTYLE
5
A
100
AcDbSymbolTable
70
1
0
ENDTAB
0
TABLE
2
BLOCK_RECORD
5
1
100
AcDbSymbolTable
70
1
0
BLOCK_RECORD
5
1F
100
AcDbSymbolTableRecord
100
AcDbBlockTableRecord
2
*MODEL_SPACE
0
BLOCK_RECORD
5
1B
100
AcDbSymbolTableRecord
100
AcDbBlockTableRecord
2
*PAPER_SPACE
0
ENDTAB
0
ENDSEC
0
SECTION
2
BLOCKS
0
BLOCK
5
20
100
AcDbEntity
100
AcDbBlockBegin
2
*MODEL_SPACE
0
ENDBLK
5
21
100
AcDbEntity
100
AcDbBlockEnd
0
BLOCK
5
1C
100
AcDbEntity
100
AcDbBlockBegin
2
*PAPER_SPACE
0
ENDBLK
5
1D
100
AcDbEntity
100
AcDbBlockEnd
0
ENDSEC
0
SECTION
2
ENTITIES
0
LWPOLYLINE
5
100
100
AcDbEntity
8
0
100
AcDbPolyline
90
4
70
1
43
0.0
10
5.9999995306132412
20
96.121809186002054
10
5.9999995306132403
20
86.121809186002054
10
4.9999995306132528
20
86.121809186002054
10
4.9999995306132563
20
96.121809186002054
0
LWPOLYLINE
5
101
100
AcDbEntity
8
0
100
AcDbPolyline
90
4
70
1
43
0.0
10
4.9999995306132314
20
9.150000011176779
10
4.9999995306132332
20
19.150000011176779
10
5.999999530613235
20
19.150000011176779
10
5.999999530613235
20
9.150000011176779
0
LWPOLYLINE
5
102
100
AcDbEntity
8
0
100
AcDbPolyline
90
4
70
1
43
0.0
10
-11.000000469386773
20
9.150000011176779
10
-11.000000469386769
20
19.150000011176779
10
-10.000000469386769
20
19.150000011176779
10
-10.000000469386769
20
9.150000011176779
0
LWPOLYLINE
5
103
100
AcDbEntity
8
0
100
AcDbPolyline
90
4
70
1
43
0.0
10
-27.000000469386769
20
9.1500000111767683
10
-27.000000469386766
20
19.150000011176779
10
-26.000000469386769
20
19.150000011176768
10
-26.000000469386777
20
9.1500000111767683
0
LWPOLYLINE
5
104
100
AcDbEntity
8
0
100
AcDbPolyline
90
4
70
1
43
0.0
10
-43.000000469386777
20
9.1500000111767967
10
-43.000000469386769
20
19.150000011176797
10
-42.000000469386769
20
19.150000011176786
10
-42.000000469386762
20
9.1500000111767861
0
LWPOLYLINE
5
105
100
AcDbEntity
8
0
100
AcDbPolyline
90
4
70
1
43
0.0
10
-59.000000469386777
20
9.1500000111767967
10
-59.000000469386762
20
19.150000011176797
10
-58.000000469386769
20
19.150000011176786
10
-58.000000469386762
20
9.1500000111767861
0
LWPOLYLINE
5
106
100
AcDbEntity
8
0
100
AcDbPolyline
90
4
70
1
43
0.0
10
-75.000000469386777
20
9.1500000111767861
10
-75.000000469386777
20
19.150000011176797
10
-74.000000469386777
20
19.150000011176786
10
-74.000000469386777
20
9.1500000111767861
0
LWPOLYLINE
5
107
100
AcDbEntity
8
0
100
AcDbPolyline
90
4
70
1
43
0.0
10
-91.000000469386762
20
9.1500000111767861
10
-91.000000469386762
20
19.150000011176797
10
-90.000000469386777
20
19.150000011176786
10
-90.000000469386777
20
9.1500000111767861
0
LWPOLYLINE
5
108
100
AcDbEntity
8
0
100
AcDbPolyline
90
4
70
1
43
0.0
10
-107.00000046938676
20
9.1500000111767861
10
-107.00000046938676
20
19.150000011176797
10
-106.00000046938676
20
19.150000011176786
10
-106.00000046938675
20
9.1500000111767861
0
LWPOLYLINE
5
109
100
AcDbEntity
8
0
100
AcDbPolyline
90
4
70
1
43
0.0
10
-123.00000046938678
20
9.1500000111768216
10
-123.00000046938678
20
19.150000011176832
10
-122.00000046938678
20
19.150000011176822
10
-122.00000046938676
20
9.1500000111768216
0
LWPOLYLINE
5
110
100
AcDbEntity
8
0
100
AcDbPolyline
90
4
70
1
43
0.0
10
-114.00000046938678
20
96.121809186002082
10
-114.00000046938678
20
86.121809186002096
10
-115.00000046938675
20
86.121809186002082
10
-115.00000046938675
20
96.121809186002082
0
LWPOLYLINE
5
111
100
AcDbEntity
8
0
100
AcDbPolyline
90
4
70
1
43
0.0
10
-98.000000469386777
20
86.121809186002082
10
-99.000000469386748
20
86.121809186002082
10
-99.000000469386748
20
96.121809186002082
10
-98.000000469386777
20
96.121809186002082
0
LWPOLYLINE
5
112
100
AcDbEntity
8
0
100
AcDbPolyline
90
4
70
1
43
0.0
10
-82.000000469386777
20
96.121809186002054
10
-82.000000469386777
20
86.121809186002082
10
-83.000000469386762
20
86.121809186002054
10
-83.000000469386762
20
96.121809186002054
0
LWPOLYLINE
5
113
100
AcDbEntity
8
0
100
AcDbPolyline
90
4
70
1
43
0.0
10
-66.000000469386762
20
96.121809186002054
10
-66.000000469386762
20
86.121809186002082
10
-67.000000469386734
20
86.121809186002054
10
-67.000000469386734
20
96.121809186002054
0
LWPOLYLINE
5
114
100
AcDbEntity
8
0
100
AcDbPolyline
90
4
70
1
43
0.0
10
-50.000000469386762
20
86.121809186002054
10
-51.000000469386748
20
86.121809186002054
10
-51.000000469386741
20
96.121809186002054
10
-50.000000469386762
20
96.121809186002054
0
LWPOLYLINE
5
115
100
AcDbEntity
8
0
100
AcDbPolyline
90
4
70
1
43
0.0
10
-34.000000469386777
20
96.121809186002039
10
-34.000000469386777
20
86.121809186002054
10
-35.000000469386762
20
86.121809186002054
10
-35.000000469386748
20
96.121809186002054
0
LWPOLYLINE
5
116
100
AcDbEntity
8
0
100
AcDbPolyline
90
4
70
1
43
0.0
10
-18.000000469386762
20
96.121809186002054
10
-18.000000469386762
20
86.121809186002054
10
-19.000000469386748
20
86.121809186002039
10
-19.000000469386748
20
96.121809186002039
0
LWPOLYLINE
5
117
100
AcDbEntity
8
0
100
AcDbPolyline
90
4
70
1
43
0.0
10
-2.0000004693867597
20
96.121809186002054
10
-2.0000004693867606
20
86.121809186002054
10
-3.0000004691059163
20
86.121809186002039
10
-3.0000004691059132
20
96.121809186002039
0
LWPOLYLINE
5
118
100
AcDbEntity
8
0
100
AcDbPolyline
90
4
70
1
43
0.0
10
-114.00000046938678
20
57.635904598589434
10
-114.00000046938678
20
47.635904598589455
10
-115.00000046938678
20
47.635904598589455
10
-115.00000046938678
20
57.635904598589455
0
LWPOLYLINE
5
119
100
AcDbEntity
8
0
100
AcDbPolyline
90
4
70
1
43
0.0
10
-98.000000469386777
20
57.635904598589434
10
-98.000000469386777
20
47.635904598589455
10
-99.000000469386777
20
47.635904598589455
10
-99.000000469386777
20
57.635904598589455
0
LWPOLYLINE
5
120
100
AcDbEntity
8
0
100
AcDbPolyline
90
4
70
1
43
0.0
10
-82.000000469386777
20
57.635904598589427
10
-82.000000469386777
20
47.635904598589448
10
-83.000000469386777
20
47.635904598589448
10
-83.000000469386777
20
57.635904598589448
0
LWPOLYLINE
5
121
100
AcDbEntity
8
0
100
AcDbPolyline
90
4
70
1
43
0.0
10
-66.000000469386762
20
57.635904598589427
10
-66.000000469386762
20
47.635904598589448
10
-67.000000469386762
20
47.635904598589448
10
-67.000000469386748
20
57.635904598589448
0
LWPOLYLINE
5
122
100
AcDbEntity
8
0
100
AcDbPolyline
90
4
70
1
43
0.0
10
-50.000000469386769
20
57.635904598589406
10
-50.000000469386769
20
47.635904598589427
10
-51.000000469386762
20
47.635904598589427
10
-51.000000469386755
20
57.635904598589427
0
LWPOLYLINE
5
123
100
AcDbEntity
8
0
100
AcDbPolyline
90
4
70
1
43
0.0
10
-34.000000469386777
20
57.635904598589406
10
-34.000000469386777
20
47.635904598589427
10
-35.000000469386769
20
47.635904598589406
10
-35.000000469386769
20
57.635904598589406
0
LWPOLYLINE
5
124
100
AcDbEntity
8
0
100
AcDbPolyline
90
4
70
1
43
0.0
10
-18.000000469386762
20
57.635904598589427
10
-18.000000469386762
20
47.635904598589427
10
-19.000000469386759
20
47.635904598589406
10
-19.000000469386759
20
57.635904598589406
0
LWPOLYLINE
5
125
100
AcDbEntity
8
0
100
AcDbPolyline
90
4
70
1
43
0.0
10
-2.0000004693867628
20
57.63590459858942
10
-2.0000004693867632
20
47.63590459858942
10
-3.0000004696675924
20
47.635904598589399
10
-3.0000004696675897
20
57.635904598589399
0
LWPOLYLINE
5
126
100
AcDbEntity
8
0
100
AcDbPolyline
90
4
70
1
43
0.0
10
5.9999995306132377
20
57.63590459858942
10
5.9999995306132368
20
47.63590459858942
10
4.9999995304728237
20
47.635904598589399
10
4.9999995304728264
20
57.635904598589399
0
LWPOLYLINE
5
127
100
AcDbEntity
8
0
100
AcDbPolyline
90
4
70
1
43
0.0
10
-10.000000469386768
20
57.635904598589406
10
-10.000000469386768
20
47.635904598589427
10
-11.000000469386762
20
47.635904598589406
10
-11.000000469386762
20
57.635904598589406
0
LWPOLYLINE
5
128
100
AcDbEntity
8
0
100
AcDbPolyline
90
4
70
1
43
0.0
10
-26.000000469386766
20
57.635904598589406
10
-26.000000469386766
20
47.635904598589427
10
-27.000000469386762
20
47.635904598589406
10
-27.000000469386762
20
57.635904598589406
0
LWPOLYLINE
5
129
100
AcDbEntity
8
0
100
AcDbPolyline
90
4
70
1
43
0.0
10
-42.000000469386769
20
57.635904598589406
10
-42.000000469386769
20
47.635904598589427
10
-43.000000469386762
20
47.635904598589427
10
-43.000000469386748
20
57.635904598589427
0
LWPOLYLINE
5
130
100
AcDbEntity
8
0
100
AcDbPolyline
90
4
70
1
43
0.0
10
-58.000000469386769
20
57.635904598589427
10
-58.000000469386769
20
47.635904598589448
10
-59.000000469386755
20
47.635904598589448
10
-59.000000469386748
20
57.635904598589448
0
LWPOLYLINE
5
131
100
AcDbEntity
8
0
100
AcDbPolyline
90
4
70
1
43
0.0
10
-74.000000469386777
20
57.635904598589427
10
-74.000000469386777
20
47.635904598589448
10
-75.000000469386777
20
47.635904598589448
10
-75.000000469386762
20
57.635904598589448
0
LWPOLYLINE
5
132
100
AcDbEntity
8
0
100
AcDbPolyline
90
4
70
1
43
0.0
10
-90.000000469386777
20
57.635904598589427
10
-90.000000469386777
20
47.635904598589448
10
-91.000000469386762
20
47.635904598589448
10
-91.000000469386762
20
57.635904598589448
0
LWPOLYLINE
5
133
100
AcDbEntity
8
0
100
AcDbPolyline
90
4
70
1
43
0.0
10
-106.00000046938676
20
57.635904598589434
10
-106.00000046938676
20
47.635904598589455
10
-107.00000046938676
20
47.635904598589455
10
-107.00000046938676
20
57.635904598589455
0
LWPOLYLINE
5
134
100
AcDbEntity
8
0
100
AcDbPolyline
90
4
70
1
43
0.0
10
-122.00000046938678
20
57.635904598589434
10
-122.00000046938678
20
47.635904598589455
10
-123.00000046938678
20
47.635904598589455
10
-123.00000046938678
20
57.635904598589455
0
LWPOLYLINE
5
135
100
AcDbEntity
8
0
100
AcDbPolyline
90
4
70
1
43
0.0
10
-10.000000469386762
20
96.121809186002054
10
-10.000000469386762
20
86.121809186002054
10
-11.00000046938675
20
86.121809186002039
10
-11.000000469386748
20
96.121809186002039
0
LWPOLYLINE
5
136
100
AcDbEntity
8
0
100
AcDbPolyline
90
4
70
1
43
0.0
10
-26.000000469386766
20
96.121809186002039
10
-26.000000469386766
20
86.121809186002054
10
-27.000000469386755
20
86.121809186002054
10
-27.000000469386745
20
96.121809186002054
0
LWPOLYLINE
5
137
100
AcDbEntity
8
0
100
AcDbPolyline
90
4
70
1
43
0.0
10
-42.000000469386762
20
86.121809186002054
10
-43.000000469386748
20
86.121809186002054
10
-43.000000469386748
20
96.121809186002054
10
-42.000000469386762
20
96.121809186002054
0
LWPOLYLINE
5
138
100
AcDbEntity
8
0
100
AcDbPolyline
90
4
70
1
43
0.0
10
-58.000000469386762
20
86.121809186002054
10
-59.000000469386748
20
86.121809186002054
10
-59.000000469386734
20
96.121809186002054
10
-58.000000469386762
20
96.121809186002039
0
LWPOLYLINE
5
139
100
AcDbEntity
8
0
100
AcDbPolyline
90
4
70
1
43
0.0
10
-74.000000469386762
20
96.121809186002054
10
-74.000000469386762
20
86.121809186002082
10
-75.000000469386748
20
86.121809186002054
10
-75.000000469386748
20
96.121809186002054
0
LWPOLYLINE
5
140
100
AcDbEntity
8
0
100
AcDbPolyline
90
4
70
1
43
0.0
10
-90.000000469386777
20
86.121809186002082
10
-91.000000469386748
20
86.121809186002082
10
-91.000000469386748
20
96.121809186002054
10
-90.000000469386777
20
96.121809186002054
0
LWPOLYLINE
5
141
100
AcDbEntity
8
0
100
AcDbPolyline
90
4
70
1
43
0.0
10
-106.00000046938676
20
86.121809186002082
10
-107.00000046938675
20
86.121809186002082
10
-107.00000046938675
20
96.121809186002082
10
-106.00000046938676
20
96.121809186002082
0
LWPOLYLINE
5
142
100
AcDbEntity
8
0
100
AcDbPolyline
90
4
70
1
43
0.0
10
-122.00000046938678
20
96.121809186002082
10
-122.00000046938678
20
86.121809186002096
10
-123.00000046938676
20
86.121809186002082
10
-123.00000046938676
20
96.121809186002082
0
LWPOLYLINE
5
143
100
AcDbEntity
8
0
100
AcDbPolyline
90
4
70
1
43
0.0
10
-115.00000046938678
20
9.1500000111768038
10
-115.00000046938678
20
19.150000011176814
10
-114.00000046938678
20
19.150000011176804
10
-114.00000046938675
20
9.1500000111768038
0
LWPOLYLINE
5
144
100
AcDbEntity
8
0
100
AcDbPolyline
90
4
70
1
43
0.0
10
-99.000000469386777
20
9.1500000111767861
10
-99.000000469386777
20
19.150000011176797
10
-98.000000469386777
20
19.150000011176786
10
-98.000000469386777
20
9.1500000111767861
0
LWPOLYLINE
5
145
100
AcDbEntity
8
0
100
AcDbPolyline
90
4
70
1
43
0.0
10
-83.000000469386777
20
9.1500000111767861
10
-83.000000469386777
20
19.150000011176797
10
-82.000000469386777
20
19.150000011176786
10
-82.000000469386762
20
9.1500000111767861
0
LWPOLYLINE
5
146
100
AcDbEntity
8
0
100
AcDbPolyline
90
4
70
1
43
0.0
10
-67.000000469386762
20
9.1500000111767861
10
-67.000000469386762
20
19.150000011176797
10
-66.000000469386762
20
19.150000011176786
10
-66.000000469386762
20
9.1500000111767861
0
LWPOLYLINE
5
147
100
AcDbEntity
8
0
100
AcDbPolyline
90
4
70
1
43
0.0
10
-51.000000469386762
20
9.1500000111767861
10
-51.000000469386762
20
19.150000011176797
10
-50.000000469386769
20
19.150000011176786
10
-50.000000469386769
20
9.1500000111767861
0
LWPOLYLINE
5
148
100
AcDbEntity
8
0
100
AcDbPolyline
90
4
70
1
43
0.0
10
-35.000000469386777
20
9.1500000111767861
10
-35.000000469386777
20
19.150000011176797
10
-34.000000469386777
20
19.150000011176786
10
-34.000000469386784
20
9.1500000111767861
0
LWPOLYLINE
5
149
100
AcDbEntity
8
0
100
AcDbPolyline
90
4
70
1
43
0.0
10
-19.000000469386769
20
9.1500000111767683
10
-19.000000469386766
20
19.150000011176779
10
-18.000000469386766
20
19.150000011176779
10
-18.000000469386769
20
9.150000011176779
0
LWPOLYLINE
5
150
100
AcDbEntity
8
0
100
AcDbPolyline
90
4
70
1
43
0.0
10
-3.0000004695271851
20
9.1500000111767683
10
-3.0000004693867659
20
19.150000011176779
10
-2.0000004693867655
20
19.150000011176779
10
-2.0000004693867659
20
9.150000011176779
0
LWPOLYLINE
5
151
100
AcDbEntity
8
0
100
AcDbPolyline
90
4
70
1
43
0.0
10
12.999999530613257
20
47.65000001117528
10
12.999999530613254
20
57.65000001117528
10
13.999999530613254
20
57.65000001117528
10
13.999999530613259
20
47.65000001117528
0
LWPOLYLINE
5
152
100
AcDbEntity
8
0
100
AcDbPolyline
90
4
70
1
43
0.0
10
13.999999530613271
20
19.150000011175827
10
13.999999530613277
20
9.1500000111758268
10
12.999999530613275
20
9.1500000111758268
10
12.999999530613271
20
19.150000011175827
0
LWPOLYLINE
5
153
100
AcDbEntity
8
0
100
AcDbPolyline
90
4
70
1
43
0.0
10
13.999999530613236
20
86.15000001117474
10
12.999999530613236
20
86.15000001117474
10
12.999999530613231
20
96.15000001117474
10
13.999999530613232
20
96.15000001117474
0
LWPOLYLINE
5
154
100
AcDbEntity
8
0
100
AcDbPolyline
90
26
70
1
43
0.0
10
-138.00000046938658
20
-0.84999998882405947
10
23.999999530613429
20
-0.8499999888240668
10
23.999999530613422
20
29.150000011175933
10
20.999999530613422
20
29.150000011175933
10
20.999999530613422
20
47.150000011175941
10
23.999999530613422
20
47.150000011175941
10
23.999999530613422
20
58.150000011175933
10
20.999999530613422
20
58.150000011175933
10
20.999999530613422
20
76.150000011175948
10
23.999999530613422
20
76.150000011175948
10
23.999999530613422
20
96.150000011175933
10
20.999999530613422
20
96.150000011175948
10
20.999999530613422
20
106.15000001117595
10
-138.00000046938658
20
106.15000001117596
10
-138.00000046938658
20
96.150000011175962
10
-141.00000046938658
20
96.150000011175962
10
-141.00000046938658
20
76.150000011175962
10
-138.00000046938658
20
76.150000011175962
10
-138.00000046938658
20
61.150000011175962
10
-141.00000046938658
20
61.150000011175962
10
-141.00000046938658
20
44.150000011175948
10
-138.00000046938658
20
44.150000011175948
10
-138.00000202655792
20
29.150000011175941
10
-141.00000046938658
20
29.150000011175941
10
-141.00000046938658
20
9.1500000111759405
10
-138.00000202655792
20
9.1500000111759423
0
ENDSEC
0
SECTION
2
OBJECTS
0
DICTIONARY
5
C
100
AcDbDictionary
3
ACAD_GROUP
350
D
3
ACAD_MLINESTYLE
350
17
0
DICTIONARY
5
D
100
AcDbDictionary
0
DICTIONARY
5
1A
330
C
100
AcDbDictionary
0
DICTIONARY
5
17
100
AcDbDictionary
0
ENDSEC
0
EOF
