0
SECTION
2
HEADER
9
$INSUNITS
70
4
9
$ACADVER
1
AC1014
9
$HANDSEED
5
FFFF
0
ENDSEC
0
SECTION
2
TABLES
0
TABLE
2
VPORT
5
8
100
AcDbSymbolTable
0
ENDTAB
0
TABLE
2
LTYPE
5
5
100
AcDbSymbolTable
0
LTYPE
5
14
100
AcDbSymbolTableRecord
100
AcDbLinetypeTableRecord
2
BYBLOCK
70
0
0
LTYPE
5
15
100
AcDbSymbolTableRecord
100
AcDbLinetypeTableRecord
2
BYLAYER
70
0
0
ENDTAB
0
TABLE
2
LAYER
5
2
100
AcDbSymbolTable
70
2
0
LAYER
5
50
100
AcDbSymbolTableRecord
100
AcDbLayerTableRecord
2
0
70
0
6
CONTINUOUS
0
ENDTAB
0
TABLE
2
STYLE
5
3
100
AcDbSymbolTable
70
1
0
STYLE
5
11
100
AcDbSymbolTableRecord
100
AcDbTextStyleTableRecord
2
STANDARD
70
0
0
ENDTAB
0
TABLE
2
VIEW
5
6
100
AcDbSymbolTable
70
0
0
ENDTAB
0
TABLE
2
UCS
5
7
100
AcDbSymbolTable
70
0
0
ENDTAB
0
TABLE
2
APPID
5
9
100
AcDbSymbolTable
70
2
0
APPID
5
12
100
AcDbSymbolTableRecord
100
AcDbRegAppTableRecord
2
ACAD
70
0
0
ENDTAB
0
TABLE
2
DIMSTYLE
5
A
100
AcDbSymbolTable
70
1
0
ENDTAB
0
TABLE
2
BLOCK_RECORD
5
1
100
AcDbSymbolTable
70
1
0
BLOCK_RECORD
5
1F
100
AcDbSymbolTableRecord
100
AcDbBlockTableRecord
2
*MODEL_SPACE
0
BLOCK_RECORD
5
1B
100
AcDbSymbolTableRecord
100
AcDbBlockTableRecord
2
*PAPER_SPACE
0
ENDTAB
0
ENDSEC
0
SECTION
2
BLOCKS
0
BLOCK
5
20
100
AcDbEntity
100
AcDbBlockBegin
2
*MODEL_SPACE
0
ENDBLK
5
21
100
AcDbEntity
100
AcDbBlockEnd
0
BLOCK
5
1C
100
AcDbEntity
100
AcDbBlockBegin
2
*PAPER_SPACE
0
ENDBLK
5
1D
100
AcDbEntity
100
AcDbBlockEnd
0
ENDSEC
0
SECTION
2
ENTITIES
0
LWPOLYLINE
5
100
100
AcDbEntity
8
0
100
AcDbPolyline
90
4
70
1
43
0.0
10
-125.82097386068135
20
110.15223191271971
10
-125.82097386068135
20
111.15223191271973
10
-115.82097386068135
20
111.15223191271973
10
-115.82097386068135
20
110.15223191271971
0
LWPOLYLINE
5
101
100
AcDbEntity
8
0
100
AcDbPolyline
90
4
70
1
43
0.0
10
-125.82097386068135
20
102.15223191271973
10
-125.82097386068135
20
103.15223191271971
10
-115.82097386068135
20
103.15223191271971
10
-115.82097386068135
20
102.15223191271973
0
LWPOLYLINE
5
102
100
AcDbEntity
8
0
100
AcDbPolyline
90
4
70
1
43
0.0
10
-115.82097386068135
20
118.15223191271971
10
-125.82097386068135
20
118.15223191271971
10
-125.82097386068135
20
119.15223191271971
10
-115.82097386068135
20
119.15223191271974
0
LWPOLYLINE
5
103
100
AcDbEntity
8
0
100
AcDbPolyline
90
4
70
1
43
0.0
10
-87.335069273268743
20
103.15223191271974
10
-77.335069273268743
20
103.15223191271974
10
-77.335069273268743
20
102.15223191271973
10
-87.335069273268743
20
102.15223191271973
0
LWPOLYLINE
5
104
100
AcDbEntity
8
0
100
AcDbPolyline
90
4
70
1
43
0.0
10
-164.30687844809398
20
102.15223191271971
10
-164.30687844809398
20
103.15223191271971
10
-154.30687844809395
20
103.15223191271971
10
-154.30687844809395
20
102.15223191271973
0
LWPOLYLINE
5
105
100
AcDbEntity
8
0
100
AcDbPolyline
90
4
70
1
43
0.0
10
-87.335069273268743
20
110.15223191271971
10
-87.335069273268743
20
111.15223191271973
10
-77.335069273268743
20
111.15223191271973
10
-77.335069273268743
20
110.15223191271973
0
LWPOLYLINE
5
106
100
AcDbEntity
8
0
100
AcDbPolyline
90
4
70
1
43
0.0
10
-164.30687844809398
20
110.15223191271971
10
-164.30687844809398
20
111.15223191271971
10
-154.30687844809395
20
111.15223191271971
10
-154.30687844809395
20
110.15223191271971
0
LWPOLYLINE
5
107
100
AcDbEntity
8
0
100
AcDbPolyline
90
4
70
1
43
0.0
10
-87.335069273268743
20
119.15223191271974
10
-77.335069273268743
20
119.15223191271974
10
-77.335069273268743
20
118.15223191271971
10
-87.335069273268743
20
118.15223191271971
0
LWPOLYLINE
5
108
100
AcDbEntity
8
0
100
AcDbPolyline
90
4
70
1
43
0.0
10
-164.30687844809398
20
118.1522319127197
10
-164.30687844809398
20
119.15223191271971
10
-154.30687844809395
20
119.15223191271971
10
-154.30687844809395
20
118.15223191271971
0
LWPOLYLINE
5
109
100
AcDbEntity
8
0
100
AcDbPolyline
90
36
70
1
43
0.0
10
-57.969797622768255
20
92.152231912719898
10
-57.969797622768226
20
95.152231912719913
10
-67.199999976249742
20
95.152231912720026
10
-67.199999976250098
20
126.10713822943288
10
-77.199999976249984
20
126.10713822942826
10
-77.199999976249984
20
129.10713822942827
10
-97.199999976249984
20
129.10713822950385
10
-97.199999976249984
20
126.10713822950385
10
-112.19999997624998
20
126.10713822942739
10
-112.19999997624998
20
129.10713822942739
10
-129.19999997624873
20
129.10713822942742
10
-129.19999997624873
20
126.10713822942741
10
-144.19999997624873
20
126.10713822942742
10
-144.19999997624873
20
129.10713822942742
10
-164.19999997624873
20
129.10713822943319
10
-164.19999997624873
20
126.10713822943319
10
-174.1999999762501
20
126.10713822943279
10
-174.19999997625129
20
53.063560772436702
10
-170.00000386992471
20
53.063560772436702
10
-170.00000386992471
20
4.0000000037252903
10
-174.19999997625129
20
4.0000000037252903
10
-174.19999997624998
20
3.1059999329448007
10
-15.199999976252485
20
3.1059999329447932
10
-15.199999976251981
20
42.999999932944803
10
0.80000002374802426
20
42.999999932944789
10
0.80000002374821133
20
95.152231912720055
10
-3.1134356248769723
20
95.152231912719358
10
-3.113435624876999
20
92.152231912719344
10
-15.113435624877001
20
92.152231912719472
10
-15.113435624876974
20
95.152231912719486
10
-23.170116134840857
20
95.152231912719557
10
-23.170116134840889
20
92.152231912719543
10
-38.170116134840889
20
92.152231912719714
10
-38.170116134840853
20
95.152231912719714
10
-45.969797622768226
20
95.152231912719785
10
-45.969797622768247
20
92.15223191271977
0
LWPOLYLINE
5
110
100
AcDbEntity
8
0
100
AcDbPolyline
90
4
70
1
43
0.0
10
-112.25289639910216
20
95.152231912720481
10
-112.25289639910218
20
92.152231912720467
10
-128.91844944392989
20
92.152231912720652
10
-128.91844944392986
20
95.152231912720652
0
LWPOLYLINE
5
111
100
AcDbEntity
8
0
100
AcDbPolyline
90
4
70
1
43
0.0
10
-144.27180217238737
20
95.152231912720794
10
-144.2718021723874
20
92.152231912720794
10
-164.26197170740309
20
92.152231912721007
10
-164.26197170740309
20
95.152231912721007
0
LWPOLYLINE
5
112
100
AcDbEntity
8
0
100
AcDbPolyline
90
4
70
1
43
0.0
10
-77.140232293429747
20
95.152231912720126
10
-77.140232293429776
20
92.152231912720111
10
-96.918448967092715
20
92.15223191272031
10
-96.918448967092687
20
95.15223191272031
0
LWPOLYLINE
5
113
100
AcDbEntity
8
0
100
AcDbPolyline
90
4
70
1
43
0.0
10
-115.19999997625115
20
52.107560772321584
10
-126.19999997625115
20
52.107560772386066
10
-126.19999997625115
20
55.107560772386051
10
-115.19999997625115
20
55.107560772321577
0
LWPOLYLINE
5
114
100
AcDbEntity
8
0
100
AcDbPolyline
90
4
70
1
43
0.0
10
-144.19999997625115
20
52.10756077243083
10
-164.19999997625115
20
52.107560772437083
10
-164.19999997625115
20
55.107560772437068
10
-144.19999997625115
20
55.107560772430837
0
CIRCLE
5
115
100
AcDbEntity
8
0
100
AcDbCircle
10
-91.739222681319347
20
10.598537735769147
30
0
40
2.2500000000000009
210
0
220
-0
230
1
0
CIRCLE
5
116
100
AcDbEntity
8
0
100
AcDbCircle
10
-20.639222681319232
20
81.69853773576925
30
0
40
2.2355427526904847
210
0
220
-0
230
1
0
CIRCLE
5
117
100
AcDbEntity
8
0
100
AcDbCircle
10
-91.789222681319359
20
81.748537735769219
30
0
40
2.2579648638337164
210
0
220
-0
230
1
0
LWPOLYLINE
5
118
100
AcDbEntity
8
0
100
AcDbPolyline
90
5
70
1
43
0.0
10
-94.904168656276823
20
47.977936582032001
42
0.0066794424110902207
10
-94.939222681319379
20
46.943045119360249
10
-94.939222681319379
20
45.35403035217815
42
0.28869555019765103
10
-72.208164767757154
20
10.855659751479845
10
-72.208164767757154
20
47.977936582032015
0
CIRCLE
5
119
100
AcDbEntity
8
0
100
AcDbCircle
10
-20.639222681319236
20
10.598537735769142
30
0
40
2.2907150412865507
210
0
220
-0
230
1
0
LWPOLYLINE
5
120
100
AcDbEntity
8
0
100
AcDbPolyline
90
11
70
1
43
0.0
10
-67.208164767757111
20
8.9897345085618507
10
-67.208164767757154
20
52.107560772436571
10
-97.199999976251149
20
52.107560772426993
10
-97.199999976251149
20
55.107560772427
10
-93.56000961564061
20
55.107560772411333
10
-93.56000961564061
20
56.477936582032022
10
-93.545577715448275
20
56.47793658195237
42
-0.86446266492020607
10
-17.439222681319201
20
46.943045119359127
10
-17.439222681175654
20
45.354030352176117
42
-0.40225497673359356
10
-55.394715297729881
20
7.3985377357691151
10
-56.983730064914795
20
7.3985377357290281
42
-0.067044112967074354
0
ENDSEC
0
SECTION
2
OBJECTS
0
DICTIONARY
5
C
100
AcDbDictionary
3
ACAD_GROUP
350
D
3
ACAD_MLINESTYLE
350
17
0
DICTIONARY
5
D
100
AcDbDictionary
0
DICTIONARY
5
1A
330
C
100
AcDbDictionary
0
DICTIONARY
5
17
100
AcDbDictionary
0
ENDSEC
0
EOF
