0
SECTION
2
HEADER
9
$INSUNITS
70
4
9
$ACADVER
1
AC1014
9
$HANDSEED
5
FFFF
0
ENDSEC
0
SECTION
2
TABLES
0
TABLE
2
VPORT
5
8
100
AcDbSymbolTable
0
ENDTAB
0
TABLE
2
LTYPE
5
5
100
AcDbSymbolTable
0
LTYPE
5
14
100
AcDbSymbolTableRecord
100
AcDbLinetypeTableRecord
2
BYBLOCK
70
0
0
LTYPE
5
15
100
AcDbSymbolTableRecord
100
AcDbLinetypeTableRecord
2
BYLAYER
70
0
0
ENDTAB
0
TABLE
2
LAYER
5
2
100
AcDbSymbolTable
70
2
0
LAYER
5
50
100
AcDbSymbolTableRecord
100
AcDbLayerTableRecord
2
0
70
0
6
CONTINUOUS
0
ENDTAB
0
TABLE
2
STYLE
5
3
100
AcDbSymbolTable
70
1
0
STYLE
5
11
100
AcDbSymbolTableRecord
100
AcDbTextStyleTableRecord
2
STANDARD
70
0
0
ENDTAB
0
TABLE
2
VIEW
5
6
100
AcDbSymbolTable
70
0
0
ENDTAB
0
TABLE
2
UCS
5
7
100
AcDbSymbolTable
70
0
0
ENDTAB
0
TABLE
2
APPID
5
9
100
AcDbSymbolTable
70
2
0
APPID
5
12
100
AcDbSymbolTableRecord
100
AcDbRegAppTableRecord
2
ACAD
70
0
0
ENDTAB
0
TABLE
2
DIMSTYLE
5
A
100
AcDbSymbolTable
70
1
0
ENDTAB
0
TABLE
2
BLOCK_RECORD
5
1
100
AcDbSymbolTable
70
1
0
BLOCK_RECORD
5
1F
100
AcDbSymbolTableRecord
100
AcDbBlockTableRecord
2
*MODEL_SPACE
0
BLOCK_RECORD
5
1B
100
AcDbSymbolTableRecord
100
AcDbBlockTableRecord
2
*PAPER_SPACE
0
ENDTAB
0
ENDSEC
0
SECTION
2
BLOCKS
0
BLOCK
5
20
100
AcDbEntity
100
AcDbBlockBegin
2
*MODEL_SPACE
0
ENDBLK
5
21
100
AcDbEntity
100
AcDbBlockEnd
0
BLOCK
5
1C
100
AcDbEntity
100
AcDbBlockBegin
2
*PAPER_SPACE
0
ENDBLK
5
1D
100
AcDbEntity
100
AcDbBlockEnd
0
ENDSEC
0
SECTION
2
ENTITIES
0
LWPOLYLINE
5
100
100
AcDbEntity
8
0
100
AcDbPolyline
90
4
70
1
43
0.0
10
-129.8882125198204
20
86.499997619539386
10
-129.8882125198204
20
96.499997619539386
10
-128.8882125198204
20
96.499997619539386
10
-128.8882125198204
20
86.499997619539386
0
LWPOLYLINE
5
101
100
AcDbEntity
8
0
100
AcDbPolyline
90
4
70
1
43
0.0
10
-113.8882125198204
20
86.499997619539414
10
-113.8882125198204
20
96.499997619539414
10
-112.88821251982041
20
96.499997619539414
10
-112.88821251982041
20
86.499997619539414
0
LWPOLYLINE
5
102
100
AcDbEntity
8
0
100
AcDbPolyline
90
4
70
1
43
0.0
10
-97.888212519820414
20
86.499997619539414
10
-97.888212519820414
20
96.499997619539414
10
-96.888212519820414
20
96.499997619539386
10
-96.888212519820414
20
86.499997619539386
0
LWPOLYLINE
5
103
100
AcDbEntity
8
0
100
AcDbPolyline
90
4
70
1
43
0.0
10
-81.888212519820414
20
86.499997619539386
10
-81.888212519820414
20
96.499997619539386
10
-80.888212519820414
20
96.499997619539386
10
-80.888212519820414
20
86.499997619539386
0
LWPOLYLINE
5
104
100
AcDbEntity
8
0
100
AcDbPolyline
90
4
70
1
43
0.0
10
-65.888212519820399
20
86.499997619539386
10
-65.888212519820399
20
96.499997619539386
10
-64.888212519820399
20
96.499997619539386
10
-64.888212519820399
20
86.499997619539386
0
LWPOLYLINE
5
105
100
AcDbEntity
8
0
100
AcDbPolyline
90
4
70
1
43
0.0
10
-57.888212519820399
20
86.499997619539386
10
-57.888212519820414
20
96.499997619539386
10
-56.888212519820406
20
96.499997619539386
10
-56.888212519820406
20
86.499997619539386
0
LWPOLYLINE
5
106
100
AcDbEntity
8
0
100
AcDbPolyline
90
4
70
1
43
0.0
10
-73.888212519820399
20
86.499997619539386
10
-73.888212519820399
20
96.499997619539386
10
-72.888212519820414
20
96.499997619539386
10
-72.888212519820414
20
86.499997619539386
0
LWPOLYLINE
5
107
100
AcDbEntity
8
0
100
AcDbPolyline
90
4
70
1
43
0.0
10
-89.888212519820399
20
86.499997619539386
10
-89.888212519820399
20
96.499997619539386
10
-88.888212519820399
20
96.499997619539386
10
-88.888212519820399
20
86.499997619539386
0
LWPOLYLINE
5
108
100
AcDbEntity
8
0
100
AcDbPolyline
90
4
70
1
43
0.0
10
-105.8882125198204
20
86.499997619539414
10
-105.8882125198204
20
96.499997619539414
10
-104.8882125198204
20
96.499997619539414
10
-104.8882125198204
20
86.499997619539414
0
LWPOLYLINE
5
109
100
AcDbEntity
8
0
100
AcDbPolyline
90
4
70
1
43
0.0
10
-121.88821251982041
20
86.499997619539386
10
-121.88821251982041
20
96.499997619539386
10
-120.88821251982041
20
96.499997619539386
10
-120.88821251982041
20
86.499997619539386
0
LWPOLYLINE
5
110
100
AcDbEntity
8
0
100
AcDbPolyline
90
4
70
1
43
0.0
10
-41.888212519820406
20
86.499997619539386
10
-41.888212519820414
20
96.499997619539386
10
-40.888212519820406
20
96.499997619539386
10
-40.888212519820406
20
86.499997619539386
0
LWPOLYLINE
5
111
100
AcDbEntity
8
0
100
AcDbPolyline
90
4
70
1
43
0.0
10
-25.888212519820396
20
86.499997619539414
10
-25.888212519820396
20
96.499997619539414
10
-24.888212519820392
20
96.499997619539414
10
-24.888212519820399
20
86.499997619539414
0
LWPOLYLINE
5
112
100
AcDbEntity
8
0
100
AcDbPolyline
90
4
70
1
43
0.0
10
-9.8882125198204029
20
86.499997619539414
10
-9.8882125198204029
20
96.499997619539414
10
-8.8882125198203994
20
96.499997619539386
10
-8.8882125198204029
20
86.499997619539386
0
LWPOLYLINE
5
113
100
AcDbEntity
8
0
100
AcDbPolyline
90
4
70
1
43
0.0
10
6.1117874801796006
20
86.499997619539386
10
6.1117874801796006
20
96.499997619539386
10
7.1117874801796033
20
96.499997619539386
10
7.1117874801796006
20
86.499997619539386
0
LWPOLYLINE
5
114
100
AcDbEntity
8
0
100
AcDbPolyline
90
4
70
1
43
0.0
10
-1.8882125198203998
20
86.499997619539386
10
-1.8882125198204001
20
96.499997619539386
10
-0.88821251982039695
20
96.499997619539386
10
-0.88821251982039884
20
86.499997619539386
0
LWPOLYLINE
5
115
100
AcDbEntity
8
0
100
AcDbPolyline
90
4
70
1
43
0.0
10
-17.888212519820399
20
86.499997619539414
10
-17.888212519820399
20
96.499997619539414
10
-16.888212519820396
20
96.499997619539414
10
-16.888212519820399
20
86.499997619539414
0
LWPOLYLINE
5
116
100
AcDbEntity
8
0
100
AcDbPolyline
90
4
70
1
43
0.0
10
-33.888212519820399
20
86.499997619539386
10
-33.888212519820399
20
96.499997619539386
10
-32.888212519820399
20
96.499997619539386
10
-32.888212519820406
20
86.499997619539386
0
LWPOLYLINE
5
117
100
AcDbEntity
8
0
100
AcDbPolyline
90
4
70
1
43
0.0
10
-49.888212519820399
20
86.499997619539386
10
-49.888212519820399
20
96.499997619539386
10
-48.888212519820406
20
96.499997619539386
10
-48.888212519820406
20
86.499997619539386
0
LWPOLYLINE
5
118
100
AcDbEntity
8
0
100
AcDbPolyline
90
4
70
1
43
0.0
10
-129.8882125198204
20
48.014093032126759
10
-129.8882125198204
20
58.014093032126759
10
-128.8882125198204
20
58.014093032126759
10
-128.8882125198204
20
48.014093032126759
0
LWPOLYLINE
5
119
100
AcDbEntity
8
0
100
AcDbPolyline
90
4
70
1
43
0.0
10
-113.8882125198204
20
48.014093032126752
10
-113.8882125198204
20
58.014093032126752
10
-112.88821251982041
20
58.014093032126752
10
-112.88821251982041
20
48.014093032126752
0
LWPOLYLINE
5
120
100
AcDbEntity
8
0
100
AcDbPolyline
90
4
70
1
43
0.0
10
-97.888212519820414
20
48.014093032126752
10
-97.888212519820414
20
58.014093032126752
10
-96.888212519820414
20
58.014093032126752
10
-96.888212519820414
20
48.014093032126752
0
LWPOLYLINE
5
121
100
AcDbEntity
8
0
100
AcDbPolyline
90
4
70
1
43
0.0
10
-81.888212519820414
20
48.014093032126759
10
-81.888212519820414
20
58.014093032126759
10
-80.888212519820414
20
58.014093032126759
10
-80.888212519820414
20
48.014093032126759
0
LWPOLYLINE
5
122
100
AcDbEntity
8
0
100
AcDbPolyline
90
4
70
1
43
0.0
10
-65.888212519820414
20
48.014093032126752
10
-65.888212519820399
20
58.014093032126752
10
-64.888212519820399
20
58.014093032126752
10
-64.888212519820414
20
48.014093032126752
0
LWPOLYLINE
5
123
100
AcDbEntity
8
0
100
AcDbPolyline
90
4
70
1
43
0.0
10
-73.888212519820414
20
48.014093032126752
10
-73.888212519820399
20
58.014093032126752
10
-72.888212519820414
20
58.014093032126752
10
-72.888212519820414
20
48.014093032126752
0
LWPOLYLINE
5
124
100
AcDbEntity
8
0
100
AcDbPolyline
90
4
70
1
43
0.0
10
-89.888212519820399
20
48.014093032126759
10
-89.888212519820399
20
58.014093032126759
10
-88.888212519820399
20
58.014093032126759
10
-88.888212519820399
20
48.014093032126759
0
LWPOLYLINE
5
125
100
AcDbEntity
8
0
100
AcDbPolyline
90
4
70
1
43
0.0
10
-105.8882125198204
20
48.014093032126752
10
-105.8882125198204
20
58.014093032126752
10
-104.8882125198204
20
58.014093032126752
10
-104.8882125198204
20
48.014093032126752
0
LWPOLYLINE
5
126
100
AcDbEntity
8
0
100
AcDbPolyline
90
4
70
1
43
0.0
10
-121.88821251982041
20
48.014093032126759
10
-121.88821251982041
20
58.014093032126759
10
-120.88821251982041
20
58.014093032126759
10
-120.88821251982041
20
48.014093032126759
0
LWPOLYLINE
5
127
100
AcDbEntity
8
0
100
AcDbPolyline
90
4
70
1
43
0.0
10
-8.8882125198204083
20
58.014093032126752
10
-8.8882125198204101
20
48.014093032126752
10
-9.8882125198204047
20
48.014093032126752
10
-9.8882125198204012
20
58.014093032126752
0
LWPOLYLINE
5
128
100
AcDbEntity
8
0
100
AcDbPolyline
90
4
70
1
43
0.0
10
-48.888212519820406
20
58.014093032126759
10
-48.888212519820414
20
48.014093032126759
10
-49.888212519820414
20
48.014093032126759
10
-49.888212519820399
20
58.014093032126759
0
LWPOLYLINE
5
129
100
AcDbEntity
8
0
100
AcDbPolyline
90
4
70
1
43
0.0
10
-32.888212519820414
20
58.014093032126759
10
-32.888212519820414
20
48.014093032126759
10
-33.888212519820399
20
48.014093032126759
10
-33.888212519820399
20
58.014093032126759
0
LWPOLYLINE
5
130
100
AcDbEntity
8
0
100
AcDbPolyline
90
4
70
1
43
0.0
10
-16.888212519820406
20
58.014093032126752
10
-16.888212519820406
20
48.014093032126752
10
-17.888212519820399
20
48.014093032126752
10
-17.888212519820399
20
58.014093032126752
0
LWPOLYLINE
5
131
100
AcDbEntity
8
0
100
AcDbPolyline
90
4
70
1
43
0.0
10
-24.888212519820403
20
58.014093032126752
10
-24.888212519820403
20
48.014093032126752
10
-25.888212519820396
20
48.014093032126752
10
-25.888212519820396
20
58.014093032126752
0
LWPOLYLINE
5
132
100
AcDbEntity
8
0
100
AcDbPolyline
90
4
70
1
43
0.0
10
-40.888212519820406
20
58.014093032126759
10
-40.888212519820414
20
48.014093032126759
10
-41.888212519820406
20
48.014093032126759
10
-41.888212519820399
20
58.014093032126759
0
LWPOLYLINE
5
133
100
AcDbEntity
8
0
100
AcDbPolyline
90
4
70
1
43
0.0
10
-56.888212519820406
20
58.014093032126752
10
-56.888212519820414
20
48.014093032126752
10
-57.888212519820399
20
48.014093032126752
10
-57.888212519820392
20
58.014093032126752
0
LWPOLYLINE
5
134
100
AcDbEntity
8
0
100
AcDbPolyline
90
4
70
1
43
0.0
10
7.1117874801795953
20
58.014093032126759
10
7.1117874801795935
20
48.014093032126759
10
6.1117874801795988
20
48.014093032126759
10
6.1117874801796015
20
58.014093032126759
0
LWPOLYLINE
5
135
100
AcDbEntity
8
0
100
AcDbPolyline
90
4
70
1
43
0.0
10
-0.88821251982040472
20
58.014093032126759
10
-0.88821251982040661
20
48.014093032126759
10
-1.8882125198204007
20
48.014093032126759
10
-1.8882125198203989
20
58.014093032126759
0
LWPOLYLINE
5
136
100
AcDbEntity
8
0
100
AcDbPolyline
90
4
70
1
43
0.0
10
-128.88821251982043
20
19.528188444714129
10
-128.88821251982043
20
9.5281884447141323
10
-129.8882125198204
20
9.5281884447141323
10
-129.8882125198204
20
19.528188444714129
0
LWPOLYLINE
5
137
100
AcDbEntity
8
0
100
AcDbPolyline
90
4
70
1
43
0.0
10
-112.88821251982043
20
19.528188444714132
10
-112.88821251982043
20
9.5281884447141323
10
-113.8882125198204
20
9.5281884447141305
10
-113.8882125198204
20
19.528188444714129
0
LWPOLYLINE
5
138
100
AcDbEntity
8
0
100
AcDbPolyline
90
4
70
1
43
0.0
10
-96.888212519820428
20
19.528188444714132
10
-96.888212519820428
20
9.5281884447141323
10
-97.888212519820414
20
9.5281884447141323
10
-97.888212519820414
20
19.528188444714132
0
LWPOLYLINE
5
139
100
AcDbEntity
8
0
100
AcDbPolyline
90
4
70
1
43
0.0
10
-80.888212519820428
20
19.528188444714132
10
-80.888212519820428
20
9.5281884447141323
10
-81.888212519820414
20
9.5281884447141323
10
-81.888212519820414
20
19.528188444714132
0
LWPOLYLINE
5
140
100
AcDbEntity
8
0
100
AcDbPolyline
90
4
70
1
43
0.0
10
-64.888212519820414
20
19.528188444714132
10
-64.888212519820428
20
9.5281884447141323
10
-65.888212519820399
20
9.5281884447141323
10
-65.888212519820399
20
19.528188444714132
0
LWPOLYLINE
5
141
100
AcDbEntity
8
0
100
AcDbPolyline
90
4
70
1
43
0.0
10
-48.888212519820414
20
19.528188444714132
10
-48.888212519820428
20
9.5281884447141323
10
-49.888212519820399
20
9.5281884447141323
10
-49.888212519820399
20
19.528188444714132
0
LWPOLYLINE
5
142
100
AcDbEntity
8
0
100
AcDbPolyline
90
4
70
1
43
0.0
10
-40.888212519820414
20
19.528188444714129
10
-40.888212519820428
20
9.5281884447141323
10
-41.888212519820414
20
9.5281884447141323
10
-41.888212519820406
20
19.528188444714129
0
LWPOLYLINE
5
143
100
AcDbEntity
8
0
100
AcDbPolyline
90
4
70
1
43
0.0
10
-56.888212519820414
20
19.528188444714132
10
-56.888212519820421
20
9.5281884447141323
10
-57.888212519820414
20
9.5281884447141305
10
-57.888212519820399
20
19.528188444714129
0
LWPOLYLINE
5
144
100
AcDbEntity
8
0
100
AcDbPolyline
90
4
70
1
43
0.0
10
-72.888212519820414
20
19.528188444714132
10
-72.888212519820428
20
9.5281884447141323
10
-73.888212519820399
20
9.5281884447141323
10
-73.888212519820399
20
19.528188444714132
0
LWPOLYLINE
5
145
100
AcDbEntity
8
0
100
AcDbPolyline
90
4
70
1
43
0.0
10
-88.888212519820428
20
19.528188444714132
10
-88.888212519820428
20
9.5281884447141323
10
-89.888212519820399
20
9.5281884447141323
10
-89.888212519820399
20
19.528188444714132
0
LWPOLYLINE
5
146
100
AcDbEntity
8
0
100
AcDbPolyline
90
4
70
1
43
0.0
10
-104.88821251982043
20
19.528188444714132
10
-104.88821251982043
20
9.5281884447141323
10
-105.8882125198204
20
9.5281884447141323
10
-105.8882125198204
20
19.528188444714132
0
LWPOLYLINE
5
147
100
AcDbEntity
8
0
100
AcDbPolyline
90
4
70
1
43
0.0
10
-120.88821251982043
20
19.528188444714132
10
-120.88821251982043
20
9.5281884447141323
10
-121.88821251982041
20
9.5281884447141323
10
-121.88821251982041
20
19.528188444714132
0
LWPOLYLINE
5
148
100
AcDbEntity
8
0
100
AcDbPolyline
90
4
70
1
43
0.0
10
-32.888212519820421
20
19.528188444714132
10
-32.888212519820421
20
9.5281884447141323
10
-33.888212519820399
20
9.5281884447141323
10
-33.888212519820406
20
19.528188444714132
0
LWPOLYLINE
5
149
100
AcDbEntity
8
0
100
AcDbPolyline
90
4
70
1
43
0.0
10
-16.88821251982041
20
19.528188444714132
10
-16.888212519820414
20
9.5281884447141323
10
-17.888212519820399
20
9.5281884447141323
10
-17.888212519820399
20
19.528188444714132
0
LWPOLYLINE
5
150
100
AcDbEntity
8
0
100
AcDbPolyline
90
4
70
1
43
0.0
10
7.1117874801795882
20
19.528188444714132
10
7.1117874801795855
20
9.5281884447141323
10
6.1117874801796006
20
9.5281884447141323
10
6.1117874801796006
20
19.528188444714132
0
LWPOLYLINE
5
151
100
AcDbEntity
8
0
100
AcDbPolyline
90
4
70
1
43
0.0
10
-8.8882125198204154
20
19.528188444714132
10
-8.8882125198204172
20
9.5281884447141323
10
-9.8882125198204029
20
9.5281884447141323
10
-9.8882125198204029
20
19.528188444714132
0
LWPOLYLINE
5
152
100
AcDbEntity
8
0
100
AcDbPolyline
90
4
70
1
43
0.0
10
-24.888212519820414
20
19.528188444714132
10
-24.888212519820414
20
9.5281884447141323
10
-25.888212519820396
20
9.5281884447141305
10
-25.888212519820399
20
19.528188444714129
0
LWPOLYLINE
5
153
100
AcDbEntity
8
0
100
AcDbPolyline
90
4
70
1
43
0.0
10
-0.88821251982041249
20
19.528188444714132
10
-0.88821251982041438
20
9.5281884447141323
10
-1.8882125198203998
20
9.5281884447141323
10
-1.8882125198204001
20
19.528188444714132
0
LWPOLYLINE
5
154
100
AcDbEntity
8
0
100
AcDbPolyline
90
7
70
1
43
0.0
10
25.048282132484019
20
-0.47181155528583585
10
25.048282132484037
20
106.49999761953939
10
-184.99999999999994
20
106.49999761953939
10
-184.99999999999997
20
102.98527899377797
42
0.41421356237309503
10
-193.48528137423855
20
94.4999976195394
10
-196.99999999999994
20
94.4999976195394
10
-196.99999999999991
20
-0.47181155528583929
0
LWPOLYLINE
5
155
100
AcDbEntity
8
0
100
AcDbPolyline
90
4
70
1
43
0.0
10
-136.88821251982057
20
44.499997619541801
10
-139.88821251982057
20
44.499997619541801
10
-139.88821251982057
20
61.499997619541809
10
-136.88821251982057
20
61.499997619541809
0
LWPOLYLINE
5
156
100
AcDbEntity
8
0
100
AcDbPolyline
90
4
70
1
43
0.0
10
-136.88821251982054
20
76.499997619541801
10
-139.88821251982054
20
76.499997619541801
10
-139.88821251982051
20
96.499997619541801
10
-136.88821251982051
20
96.499997619541801
0
LWPOLYLINE
5
157
100
AcDbEntity
8
0
100
AcDbPolyline
90
4
70
1
43
0.0
10
-136.88821251982063
20
9.4999976195417961
10
-139.88821251982063
20
9.4999976195418014
10
-139.88821251982063
20
29.499997619541801
10
-136.8882125198206
20
29.499997619541798
0
ENDSEC
0
SECTION
2
OBJECTS
0
DICTIONARY
5
C
100
AcDbDictionary
3
ACAD_GROUP
350
D
3
ACAD_MLINESTYLE
350
17
0
DICTIONARY
5
D
100
AcDbDictionary
0
DICTIONARY
5
1A
330
C
100
AcDbDictionary
0
DICTIONARY
5
17
100
AcDbDictionary
0
ENDSEC
0
EOF
